<svg xmlns="http://www.w3.org/2000/svg" xmlns:xlink="http://www.w3.org/1999/xlink" width="625" height="627" viewBox="0 0 625 627"><defs><clipPath id="b"><rect width="625" height="627"/></clipPath></defs><g id="a" clip-path="url(#b)"><g transform="translate(20.18 536.35)"><path d="M468.459-487.2c-1.6.343-88.66,15.653-193.659,34.162C169.916-434.533,81.941-418.88,79.427-418.195c-19.88,5.37-37.932,23.765-43.416,44.444-2.171,8.226-2.171,23.193.114,35.3,1.714,9.255,1.714,9.826-.229,10.968C17.159-316.624,6.077-302.8,1.735-284.4-.778-273.436-.778-18.08,1.735-7.112A64.027,64.027,0,0,0,50.179,40.532c11.54,2.4,392.345,2.285,404-.114,21.365-4.456,38.389-19.652,46.615-41.245,2.4-6.512,2.514-8.455,3.085-55.87l.571-49.129,17.138-3.085c9.483-1.714,19.88-4.113,23.193-5.484,24.793-9.369,41.7-35.647,39.874-61.7-.914-12.111-44.9-260.726-47.758-269.295C527.871-473.036,496.451-492.117,468.459-487.2Zm22.851,37.589a27.465,27.465,0,0,1,13.6,16.8c.686,2.628,11.311,61.811,23.65,131.62,15.881,90.374,22.165,128.192,21.708,131.734-1.143,9.026-7.769,18.052-16.224,22.279-1.942,1.028-8.34,2.628-14.282,3.656s-11.882,2.171-13.253,2.514l-2.628.571V-209c0-45.358-.457-70.723-1.257-74.722-3.77-18.052-17.138-34.961-34.276-43.073-5.484-2.628-12.8-5.141-17.024-5.827-4.8-.686-72.094-1.143-193.316-1.143H72l-.457-2.628c-3.542-16.452-3.885-26.05-1.371-32.105,2.285-5.484,9.026-12.568,14.053-14.853,6.741-2.971,388-70.38,395.316-69.809A29.806,29.806,0,0,1,491.31-449.614ZM453.149-296.4c11.425,6.055,15.653,13.71,16.224,29.135l.457,11.2H34.069l.457-11.2c.343-8.34,1.028-12.225,2.856-15.653a30.093,30.093,0,0,1,16.567-14.4c5.827-2.057,14.167-2.057,200.286-1.828l194.23.229ZM469.6-198.943v21.708H34.3v-43.416H469.6Zm0,119.28c0,68.438,0,68.323-6.284,76.55a36.033,36.033,0,0,1-8.8,7.084l-6.055,3.313H251.95C62.518,7.284,55.32,7.17,51.435,5.113A36.329,36.329,0,0,1,37.382-8.712c-2.514-4.456-2.514-5.37-2.856-69.466l-.343-64.782H469.6Z" transform="translate(0 0)" fill="#fff"/><path d="M73.1-113.412a32.389,32.389,0,0,0-6.055,3.085c-5.37,4.456-6.855,15.424-2.971,21.822,4.913,7.883,4.227,7.769,53.585,7.769,42.5,0,44.444-.114,48.1-2.285,5.027-3.085,8.683-11.2,7.655-16.909a17.259,17.259,0,0,0-10.169-12.911c-4.342-1.942-8.112-2.171-45.244-2.057C87.037-114.9,76.412-114.554,73.1-113.412Z" transform="translate(8.842 53.172)" fill="#fff"/></g></g></svg>