<svg xmlns="http://www.w3.org/2000/svg" xmlns:xlink="http://www.w3.org/1999/xlink" width="864" height="627" viewBox="0 0 864 627"><defs><clipPath id="b"><rect width="864" height="627"/></clipPath></defs><g id="a" clip-path="url(#b)"><g transform="translate(177.052 569.845)"><path d="M141.8-494.5c-15.7,2.5-31.9,9-46.5,18.7-10,6.7-26.2,22.9-33.8,33.7-21.8,31.2-33.4,77.4-28.4,113.8,3,22.4,8.8,37.7,32.3,85.1C86.3-201.1,94.6-183,118.2-128c33.4,77.7,45.9,98.5,65.4,108.1,6.5,3.2,7.4,3.4,17.4,3.4,12.7-.1,18.7-2.2,25.1-9.2C236.5-37,240-56.8,240-103.9c0-38.6,2.4-64.2,7-73.6,4.2-8.7,13.8-8.7,18,0,4.6,9.4,7,35,7,73.6,0,47.1,3.5,66.9,13.9,78.2,6.4,7,12.4,9.1,25.1,9.2,10,0,10.9-.2,17.4-3.4,19.5-9.6,31.9-30.2,65.4-108.1,23.8-55.2,32-73.2,52.8-115.2,10-20.2,20-41.4,22.2-47,9.8-25.7,12.8-47.1,10.2-72.8-5.6-54-34-99.3-75.6-120.6-21.5-10.9-44.4-14.5-69.2-10.8A133.587,133.587,0,0,0,280.5-474c-10.7,7-16.2,9-24.5,9s-13.8-2-24.7-9.1C204-491.8,171.7-499.1,141.8-494.5Zm35.2,16c17.4,2.9,32.5,9,49,20,15.6,10.3,31.7,17,51.1,21.2,10.5,2.2,45.2,2.5,56.9.5,8.2-1.5,30.1-6.9,30.8-7.7.5-.4-3.8-15.5-4.3-15.5-.1,0-2.7.9-5.8,1.9-14.3,5-26.1,6.6-47.2,6.5-11-.1-22-.5-24.4-1l-4.4-.9,8.4-5.7c10.7-7.1,18.7-11.1,29.7-14.8,30.1-10.1,60-7.1,86.4,8.6,11.1,6.6,28.6,23.8,36.3,35.7,10.5,16.3,17.5,33.9,21.7,54.9,1.8,9.1,2.2,14.8,2.2,28.8,0,15.7-.2,18.6-2.6,28.2-4.2,16.5-7.5,24.2-28.8,67.8-22.9,46.8-29,60-52.2,114C344-52.6,332.3-34.2,313.8-32.3c-14.5,1.5-20.7-5.3-23.8-26.2-.6-3.9-1.5-25.7-2-48.5-.9-43.3-2.3-59.2-6-71.1-2.8-9.1-7-15.2-12.7-18.6-4.3-2.5-5.8-2.8-13.3-2.8s-9,.3-13.3,2.8c-5.7,3.4-9.9,9.5-12.7,18.6-3.7,11.9-5.1,27.8-6,71.1-.5,22.8-1.4,44.6-2,48.5-3.1,20.9-9.3,27.7-23.8,26.2-18.5-1.9-30.3-20.5-66.1-103.8C108.5-191,102.7-203.7,80-250c-20.9-42.5-24.6-51.1-28.6-67.5-8.6-34.8-.2-79.4,21.1-112.2,7.8-12,25.2-29.2,36.3-35.7Q140.75-484.3,177-478.5Z" fill="#fff"/><path d="M153.5-462.5c-33.3,6.1-62.5,30.4-77,64.1-6.1,14.2-11,34.6-11.7,48.4l-.3,5.5,7.6.5,7.6.5L81.3-355c4.3-30.5,13.6-51.1,30.7-68,13.3-13.2,29.4-21.2,48.7-24.2l7.3-1.2V-464l-3.7.1A84.086,84.086,0,0,0,153.5-462.5Z" fill="#fff"/><path d="M430.7-334.5c-4.1,22.9-14.8,48-31.3,73.2a82.1,82.1,0,0,0-5.4,8.6c0,.6,9.7,7.7,11.6,8.4,2,.7,14.1-18.3,23.4-36.9,8.5-17.1,15.1-36,17.5-50.2,2.3-13.5,2.8-12.6-6.3-12.6h-7.8Z" fill="#fff"/><path d="M64-320v8H80v-16H64Z" fill="#fff"/></g></g></svg>