<svg xmlns="http://www.w3.org/2000/svg" xmlns:xlink="http://www.w3.org/1999/xlink" width="864" height="627" viewBox="0 0 864 627"><defs><clipPath id="a"><path d="M599.759-756.987l.753-.753c.1.483.2.962.317,1.441C600.476-756.538,600.117-756.766,599.759-756.987Zm15-15q-7.164-7.164-14.3-14.328-11.02-11.039-22.028-22.082a69.326,69.326,0,0,0-9.9,35.818q0,2.628.191,5.207c.013.138.018.275.036.406a69.147,69.147,0,0,0,10.091,30.893c1.111,1.818,2.314,3.581,3.593,5.285a.034.034,0,0,0,.017.024q6.959,6.966,13.923,13.939,3.828,3.839,7.656,7.669.871-.86,1.722-1.721,6.42-6.421,12.835-12.835,3.056-3.067,6.121-6.127,8.035-8.035,16.062-16.068-13.011-13.037-26.015-26.081Z" transform="translate(-568.532 808.401)"/></clipPath><linearGradient id="b" x1="-6.825" y1="7.065" x2="-6.823" y2="7.065" gradientUnits="objectBoundingBox"><stop offset="0" stop-color="#b89038"/><stop offset="0.529" stop-color="#f6e391"/><stop offset="1" stop-color="#d1af6d"/></linearGradient><clipPath id="c"><path d="M829.146-683.55a69.338,69.338,0,0,1-8.154,32.74l-2.546,2.548L792.383-622.2l-.221.221L779.985-609.8l-36.7,36.7q-18.56-18.588-37.115-37.176-12.841-12.848-25.668-25.7,8.239-8.257,16.481-16.5v-.006q10.1-10.123,20.21-20.24,12.839,12.867,25.686,25.74l74.829-74.829a69.4,69.4,0,0,1,11.435,38.268Z" transform="translate(-680.505 721.818)"/></clipPath><linearGradient id="d" x1="-3.971" y1="4.21" x2="-3.97" y2="4.21" xlink:href="#b"/><clipPath id="e"><path d="M697.183-858.67l-36.829,36.829-21.1-21.1-9.187-9.187-6.534-6.534,36.829-36.829Z" transform="translate(-623.533 895.492)"/></clipPath><linearGradient id="f" x1="-7.343" y1="10.545" x2="-7.341" y2="10.545" xlink:href="#b"/><clipPath id="g"><path d="M726.907-772.21a69.6,69.6,0,0,1-.424,7.692,69.127,69.127,0,0,1-10.066,29.094c-.138.239-.287.473-.436.705l-.007.007c0,.006-.006.006-.006.012q-10.607,10.616-21.2,21.227h-.006q-2.125,2.128-4.251,4.255L678.2-696.885l-13.874,13.892q-11.415,11.433-22.829,22.859-6.293,6.3-12.588,12.606-12.831,12.85-25.663,25.7l-37.121,37.176L498.44-652.34a68.865,68.865,0,0,1-6.354-8.59,69.329,69.329,0,0,1-10.646-37.038,69.327,69.327,0,0,1,9.881-35.788l75.217,75.217q12.848-12.867,25.686-25.74,6.286-6.3,12.577-12.6,3.748-3.766,7.508-7.526,3.613-3.623,7.233-7.251l1.141-1.143c.8-.8,1.6-1.607,2.4-2.409q9.209-9.226,18.418-18.459,6.132-6.151,12.272-12.3L679.8-772.043l15.1-15.135q10.813-10.832,21.615-21.664a69.345,69.345,0,0,1,10.395,36.632Z" transform="translate(-481.44 808.842)"/></clipPath><linearGradient id="h" x1="-1.701" y1="3.129" x2="-1.701" y2="3.129" xlink:href="#b"/><clipPath id="i"><path d="M424.305-492.1c7.674-21.544,4.626-59.222-21.262-84.07C384.47-544,404.089-507.256,424.305-492.1Z" transform="translate(-395.599 576.172)"/></clipPath><linearGradient id="j" x1="-10.592" y1="5.944" x2="-10.589" y2="5.944" xlink:href="#b"/><clipPath id="k"><path d="M366.435-631.622c-9.649,10.261-24.082,51.579,8.076,85.191C384.454-570.644,386.656-607.878,366.435-631.622Z" transform="translate(-354.708 631.622)"/></clipPath><linearGradient id="l" x1="-11.316" y1="6.43" x2="-11.312" y2="6.43" xlink:href="#b"/><clipPath id="m"><path d="M329.978-973.188C289.893-931.548,284.6-898.752,296-857.967,313.694-875.024,328.6-924.087,329.978-973.188Z" transform="translate(-290.733 973.188)"/></clipPath><linearGradient id="n" x1="-6.425" y1="7.325" x2="-6.422" y2="7.325" xlink:href="#b"/><clipPath id="o"><path d="M339.436-689.3c-21.613,12.851-19.194,54.114-6.416,75.581C347.455-633.717,358-658.57,339.436-689.3Z" transform="translate(-323.288 689.296)"/></clipPath><linearGradient id="p" x1="-10.749" y1="7.91" x2="-10.745" y2="7.91" xlink:href="#b"/><clipPath id="q"><path d="M332.868-747.011c-13.079,4.467-37.084,29.869-26.176,66.55C323.307-693.925,343.36-722.349,332.868-747.011Z" transform="translate(-303.927 747.011)"/></clipPath><linearGradient id="r" x1="-8.277" y1="9.735" x2="-8.273" y2="9.735" xlink:href="#b"/><clipPath id="s"><path d="M331.2-811.879c-9.648,2.758-37.218,25.548-32.219,66.289,18.1-10.306,39.748-29.827,32.219-66.289Z" transform="translate(-298.381 811.879)"/></clipPath><linearGradient id="t" x1="-7.532" y1="10.622" x2="-7.529" y2="10.622" xlink:href="#b"/><clipPath id="u"><path d="M298.1-807.947c17.074-7.84,42.669-40.6,37.966-67.292C318.835-870.059,297.069-838.264,298.1-807.947Z" transform="translate(-298.065 875.239)"/></clipPath><linearGradient id="v" x1="-6.703" y1="11.28" x2="-6.7" y2="11.28" xlink:href="#b"/><clipPath id="w"><path d="M420.123-475.773c-25.809-24.37-66.983-33.443-86.413-25.49C360.093-456.456,401.747-464.735,420.123-475.773Z" transform="translate(-333.71 504.071)"/></clipPath><linearGradient id="x" x1="-3.349" y1="11.81" x2="-3.348" y2="11.81" xlink:href="#b"/><clipPath id="y"><path d="M483.152-448.144c2.36-22.548-6.675-61.149-33.272-68.421C443.438-504.226,442.252-469.228,483.152-448.144Z" transform="translate(-446.496 516.565)"/></clipPath><linearGradient id="z" x1="-10.461" y1="6.548" x2="-10.458" y2="6.548" xlink:href="#b"/><clipPath id="aa"><path d="M485.37-431.505c-18.552-9.436-63.047-22.395-91.316-8.081C433.315-403.6,475.853-423.124,485.37-431.505Z" transform="translate(-394.054 445.958)"/></clipPath><linearGradient id="ab" x1="-3.743" y1="14.162" x2="-3.741" y2="14.162" xlink:href="#b"/><clipPath id="ac"><path d="M547.189-417.919c-2.007-22.888-14.107-52.684-47.287-59.82C496.282-465.305,500.953-431.415,547.189-417.919Z" transform="translate(-498.937 477.739)"/></clipPath><linearGradient id="ad" x1="-8.968" y1="6.926" x2="-8.966" y2="6.926" xlink:href="#b"/><clipPath id="ae"><path d="M549.81-403.286c-20.563-5.76-76.76-12.553-101.2,7.184C497-362.075,542.184-393.585,549.81-403.286Z" transform="translate(-448.614 409.256)"/></clipPath><linearGradient id="af" x1="-3.845" y1="12.424" x2="-3.844" y2="12.424" xlink:href="#b"/><clipPath id="ag"><path d="M625.606-398.718c-5.908-29.383-36.045-42.513-59.68-47.974C563.875-417.527,593.636-401.073,625.606-398.718Z" transform="translate(-565.826 446.692)"/></clipPath><linearGradient id="ah" x1="-8.209" y1="8.075" x2="-8.207" y2="8.075" xlink:href="#b"/><clipPath id="ai"><path d="M536.885-374.127c60.306,23.43,84.616,1.233,84.822-12.836C600.328-388.776,549.261-391.813,536.885-374.127Z" transform="translate(-536.885 388.376)"/></clipPath><linearGradient id="aj" x1="-5.49" y1="13.755" x2="-5.488" y2="13.755" xlink:href="#b"/><clipPath id="ak"><path d="M294.42-577.775c-2.193,49.985,49.7,47.245,74.078,47.57C360.844-540.723,318.341-578.758,294.42-577.775Z" transform="translate(-294.352 577.793)"/></clipPath><linearGradient id="al" x1="-3.443" y1="10.53" x2="-3.442" y2="10.53" xlink:href="#b"/><clipPath id="am"><path d="M263.006-657.585c-1.662,40.7,32.159,61.157,64.767,60.533C317.93-616.715,291.763-654.016,263.006-657.585Z" transform="translate(-262.948 657.585)"/></clipPath><linearGradient id="an" x1="-3.518" y1="9.419" x2="-3.516" y2="9.419" xlink:href="#b"/><clipPath id="ao"><path d="M300.355-668.865c-4.528-17.552-10.923-48.658-39.3-63.8C250.328-696.11,281.75-671.267,300.355-668.865Z" transform="translate(-258.877 732.669)"/></clipPath><linearGradient id="ap" x1="-5.413" y1="9.959" x2="-5.41" y2="9.959" xlink:href="#b"/><clipPath id="aq"><path d="M291.185-735.372c-1.462-19.053-13.5-56.937-31.666-62.888C244.836-753.527,278.65-738.919,291.185-735.372Z" transform="translate(-255.892 798.259)"/></clipPath><linearGradient id="ar" x1="-6.288" y1="11.009" x2="-6.285" y2="11.009" xlink:href="#b"/><clipPath id="as"><path d="M290.828-794.381c1.407-17.371,3.211-58.009-20.01-81.883C254.375-821.479,281.835-798.857,290.828-794.381Z" transform="translate(-265.676 876.263)"/></clipPath><linearGradient id="at" x1="-8.902" y1="9.281" x2="-8.897" y2="9.281" xlink:href="#b"/><clipPath id="au"><path d="M904.068-492.1c-7.675-21.544-4.626-59.222,21.262-84.07C943.9-544,924.284-507.256,904.068-492.1Z" transform="translate(-900.382 576.172)"/></clipPath><linearGradient id="av" x1="-24.107" y1="5.944" x2="-24.104" y2="5.944" xlink:href="#b"/><clipPath id="aw"><path d="M962.735-631.622c9.65,10.261,24.082,51.579-8.077,85.191C944.716-570.644,942.513-607.878,962.735-631.622Z" transform="translate(-947.276 631.622)"/></clipPath><linearGradient id="ax" x1="-30.219" y1="6.43" x2="-30.215" y2="6.43" xlink:href="#b"/><clipPath id="ay"><path d="M997.346-973.188c40.085,41.64,45.375,74.437,33.984,115.221C1013.63-875.024,998.726-924.087,997.346-973.188Z" transform="translate(-997.346 973.188)"/></clipPath><linearGradient id="az" x1="-22.041" y1="7.325" x2="-22.038" y2="7.325" xlink:href="#b"/><clipPath id="ba"><path d="M989.9-689.3c21.614,12.851,19.194,54.114,6.414,75.581C981.883-633.717,971.341-658.57,989.9-689.3Z" transform="translate(-979.967 689.296)"/></clipPath><linearGradient id="bb" x1="-32.583" y1="7.91" x2="-32.579" y2="7.91" xlink:href="#b"/><clipPath id="bc"><path d="M995.588-747.011c13.08,4.467,37.085,29.869,26.176,66.55C1005.15-693.925,985.1-722.349,995.588-747.011Z" transform="translate(-992.682 747.011)"/></clipPath><linearGradient id="bd" x1="-27.034" y1="9.735" x2="-27.03" y2="9.735" xlink:href="#b"/><clipPath id="be"><path d="M996.872-811.879c9.648,2.758,37.218,25.548,32.22,66.289-18.1-10.306-39.75-29.827-32.22-66.289Z" transform="translate(-995.336 811.879)"/></clipPath><linearGradient id="bf" x1="-25.126" y1="10.622" x2="-25.122" y2="10.622" xlink:href="#b"/><clipPath id="bg"><path d="M1029.328-807.947c-17.074-7.84-42.669-40.6-37.966-67.292C1008.593-870.059,1030.361-838.264,1029.328-807.947Z" transform="translate(-990.794 875.239)"/></clipPath><linearGradient id="bh" x1="-22.28" y1="11.28" x2="-22.277" y2="11.28" xlink:href="#b"/><clipPath id="bi"><path d="M899.984-475.773c25.809-24.37,66.981-33.443,86.413-25.49C960.015-456.456,918.361-464.735,899.984-475.773Z" transform="translate(-899.984 504.071)"/></clipPath><linearGradient id="bj" x1="-9.033" y1="11.81" x2="-9.031" y2="11.81" xlink:href="#b"/><clipPath id="bk"><path d="M844.513-448.144c-2.36-22.548,6.675-61.149,33.272-68.421C884.228-504.226,885.414-469.228,844.513-448.144Z" transform="translate(-844.153 516.565)"/></clipPath><linearGradient id="bl" x1="-19.778" y1="6.548" x2="-19.775" y2="6.548" xlink:href="#b"/><clipPath id="bm"><path d="M833.987-431.505c18.551-9.436,63.047-22.395,91.316-8.081C886.041-403.6,843.5-423.124,833.987-431.505Z" transform="translate(-833.987 445.958)"/></clipPath><linearGradient id="bn" x1="-7.921" y1="14.162" x2="-7.92" y2="14.162" xlink:href="#b"/><clipPath id="bo"><path d="M778.758-417.919c2.008-22.888,14.107-52.684,47.287-59.82C829.664-465.305,824.994-431.415,778.758-417.919Z" transform="translate(-778.758 477.739)"/></clipPath><linearGradient id="bp" x1="-13.998" y1="6.926" x2="-13.995" y2="6.926" xlink:href="#b"/><clipPath id="bq"><path d="M768.034-403.286c20.563-5.76,76.761-12.553,101.2,7.184C820.847-362.075,775.661-393.585,768.034-403.286Z" transform="translate(-768.034 409.256)"/></clipPath><linearGradient id="br" x1="-6.582" y1="12.424" x2="-6.581" y2="12.424" xlink:href="#b"/><clipPath id="bs"><path d="M698.577-398.718c5.908-29.383,36.045-42.513,59.68-47.974C760.307-417.527,730.546-401.073,698.577-398.718Z" transform="translate(-698.577 446.692)"/></clipPath><linearGradient id="bt" x1="-10.135" y1="8.075" x2="-10.133" y2="8.075" xlink:href="#b"/><clipPath id="bu"><path d="M783.466-374.127c-60.307,23.43-84.616,1.233-84.821-12.836C720.022-388.776,771.089-391.813,783.466-374.127Z" transform="translate(-698.645 388.376)"/></clipPath><linearGradient id="bv" x1="-7.144" y1="13.755" x2="-7.142" y2="13.755" xlink:href="#b"/><clipPath id="bw"><path d="M1027.565-577.775c2.192,49.985-49.7,47.245-74.078,47.57C961.141-540.723,1003.644-578.758,1027.565-577.775Z" transform="translate(-953.487 577.793)"/></clipPath><linearGradient id="bx" x1="-11.153" y1="10.53" x2="-11.152" y2="10.53" xlink:href="#b"/><clipPath id="by"><path d="M1060.4-657.585c1.662,40.7-32.159,61.157-64.767,60.533C1005.481-616.715,1031.647-654.016,1060.4-657.585Z" transform="translate(-995.638 657.585)"/></clipPath><linearGradient id="bz" x1="-13.32" y1="9.419" x2="-13.319" y2="9.419" xlink:href="#b"/><clipPath id="ca"><path d="M1026.628-668.865c4.528-17.552,10.923-48.658,39.3-63.8C1076.656-696.11,1045.233-671.267,1026.628-668.865Z" transform="translate(-1026.628 732.669)"/></clipPath><linearGradient id="cb" x1="-21.467" y1="9.959" x2="-21.464" y2="9.959" xlink:href="#b"/><clipPath id="cc"><path d="M1036.743-735.372c1.463-19.053,13.5-56.937,31.668-62.888C1083.093-753.527,1049.279-738.919,1036.743-735.372Z" transform="translate(-1036.743 798.259)"/></clipPath><linearGradient id="cd" x1="-25.476" y1="11.009" x2="-25.472" y2="11.009" xlink:href="#b"/><clipPath id="ce"><path d="M1038.541-794.381c-1.407-17.371-3.211-58.009,20.01-81.883C1074.994-821.479,1047.534-798.857,1038.541-794.381Z" transform="translate(-1037.809 876.263)"/></clipPath><linearGradient id="cf" x1="-34.772" y1="9.281" x2="-34.768" y2="9.281" xlink:href="#b"/><clipPath id="ch"><rect width="864" height="627"/></clipPath></defs><g id="cg" clip-path="url(#ch)"><g transform="translate(-180.152 1020.843)"><g transform="translate(255.892 -973.188)"><g transform="translate(271.15 142.919)"><g transform="translate(0)" clip-path="url(#a)"><path d="M599.759-756.987l.753-.753c.1.483.2.962.317,1.441C600.476-756.538,600.117-756.766,599.759-756.987Zm15-15q-7.164-7.164-14.3-14.328-11.02-11.039-22.028-22.082a69.326,69.326,0,0,0-9.9,35.818q0,2.628.191,5.207c.013.138.018.275.036.406a69.147,69.147,0,0,0,10.091,30.893c1.111,1.818,2.314,3.581,3.593,5.285a.034.034,0,0,0,.017.024q6.959,6.966,13.923,13.939,3.828,3.839,7.656,7.669.871-.86,1.722-1.721,6.42-6.421,12.835-12.835,3.056-3.067,6.121-6.127,8.035-8.035,16.062-16.068-13.011-13.037-26.015-26.081" transform="translate(-568.532 808.401)" fill="url(#b)"/></g></g><g transform="translate(368.264 218.011)"><g clip-path="url(#c)"><path d="M829.146-683.55a69.338,69.338,0,0,1-8.154,32.74l-2.546,2.548L792.383-622.2l-.221.221L779.985-609.8l-36.7,36.7q-18.56-18.588-37.115-37.176-12.841-12.848-25.668-25.7,8.239-8.257,16.481-16.5v-.006q10.1-10.123,20.21-20.24,12.839,12.867,25.686,25.74l74.829-74.829a69.4,69.4,0,0,1,11.435,38.268" transform="translate(-680.505 721.818)" fill="url(#d)"/></g></g><g transform="translate(318.852 67.385)"><g clip-path="url(#e)"><path d="M697.183-858.67l-36.829,36.829-21.1-21.1-9.187-9.187-6.534-6.534,36.829-36.829,36.822,36.823" transform="translate(-623.533 895.492)" fill="url(#f)"/></g></g><g transform="translate(195.616 142.536)"><g clip-path="url(#g)"><path d="M726.907-772.21a69.6,69.6,0,0,1-.424,7.692,69.127,69.127,0,0,1-10.066,29.094c-.138.239-.287.473-.436.705l-.007.007c0,.006-.006.006-.006.012q-10.607,10.616-21.2,21.227h-.006q-2.125,2.128-4.251,4.255L678.2-696.885l-13.874,13.892q-11.415,11.433-22.829,22.859-6.293,6.3-12.588,12.606-12.831,12.85-25.663,25.7l-37.121,37.176L498.44-652.34a68.865,68.865,0,0,1-6.354-8.59,69.329,69.329,0,0,1-10.646-37.038,69.327,69.327,0,0,1,9.881-35.788l75.217,75.217q12.848-12.867,25.686-25.74,6.286-6.3,12.577-12.6,3.748-3.766,7.508-7.526,3.613-3.623,7.233-7.251l1.141-1.143c.8-.8,1.6-1.607,2.4-2.409q9.209-9.226,18.418-18.459,6.132-6.151,12.272-12.3L679.8-772.043l15.1-15.135q10.813-10.832,21.615-21.664a69.345,69.345,0,0,1,10.395,36.632" transform="translate(-481.44 808.842)" fill="url(#h)"/></g></g><g transform="translate(121.167 344.329)"><g clip-path="url(#i)"><path d="M424.305-492.1c7.674-21.544,4.626-59.222-21.262-84.07C384.47-544,404.089-507.256,424.305-492.1" transform="translate(-395.599 576.172)" fill="url(#j)"/></g></g><g transform="translate(85.702 296.237)"><g clip-path="url(#k)"><path d="M366.435-631.622c-9.649,10.261-24.082,51.579,8.076,85.191,9.943-24.212,12.144-61.447-8.076-85.191" transform="translate(-354.708 631.622)" fill="url(#l)"/></g></g><g transform="translate(30.218)"><g clip-path="url(#m)"><path d="M329.978-973.188C289.893-931.548,284.6-898.752,296-857.967c17.7-17.057,32.6-66.12,33.983-115.221" transform="translate(-290.733 973.188)" fill="url(#n)"/></g></g><g transform="translate(58.452 246.218)"><g clip-path="url(#o)"><path d="M339.436-689.3c-21.613,12.851-19.194,54.114-6.416,75.581,14.434-20,24.977-44.856,6.416-75.581" transform="translate(-323.288 689.296)" fill="url(#p)"/></g></g><g transform="translate(41.661 196.161)"><g clip-path="url(#q)"><path d="M332.868-747.011c-13.079,4.467-37.084,29.869-26.176,66.55,16.615-13.464,36.668-41.888,26.176-66.55" transform="translate(-303.927 747.011)" fill="url(#r)"/></g></g><g transform="translate(36.851 139.902)"><g clip-path="url(#s)"><path d="M331.2-811.879c-9.648,2.758-37.218,25.548-32.219,66.289,18.1-10.306,39.748-29.827,32.219-66.289" transform="translate(-298.381 811.879)" fill="url(#t)"/></g></g><g transform="translate(36.577 84.95)"><g clip-path="url(#u)"><path d="M298.1-807.947c17.074-7.84,42.669-40.6,37.966-67.292-17.232,5.181-39,36.975-37.966,67.292" transform="translate(-298.065 875.239)" fill="url(#v)"/></g></g><g transform="translate(67.491 406.861)"><g clip-path="url(#w)"><path d="M420.123-475.773c-25.809-24.37-66.983-33.443-86.413-25.49,26.383,44.808,68.037,36.528,86.413,25.49" transform="translate(-333.71 504.071)" fill="url(#x)"/></g></g><g transform="translate(165.309 396.025)"><g clip-path="url(#y)"><path d="M483.152-448.144c2.36-22.548-6.675-61.149-33.272-68.421-6.443,12.34-7.629,47.338,33.272,68.421" transform="translate(-446.496 516.565)" fill="url(#z)"/></g></g><g transform="translate(119.827 457.262)"><g clip-path="url(#aa)"><path d="M485.37-431.505c-18.552-9.436-63.047-22.395-91.316-8.081,39.262,35.986,81.8,16.462,91.316,8.081" transform="translate(-394.054 445.958)" fill="url(#ab)"/></g></g><g transform="translate(210.791 429.699)"><g clip-path="url(#ac)"><path d="M547.189-417.919c-2.007-22.888-14.107-52.684-47.287-59.82-3.619,12.433,1.051,46.324,47.287,59.82" transform="translate(-498.937 477.739)" fill="url(#ad)"/></g></g><g transform="translate(167.146 489.094)"><g clip-path="url(#ae)"><path d="M549.81-403.286c-20.563-5.76-76.76-12.553-101.2,7.184,48.384,34.028,93.57,2.517,101.2-7.184" transform="translate(-448.614 409.256)" fill="url(#af)"/></g></g><g transform="translate(268.803 456.626)"><g transform="translate(0)" clip-path="url(#ag)"><path d="M625.606-398.718c-5.908-29.383-36.045-42.513-59.68-47.974-2.051,29.165,27.71,45.619,59.68,47.974" transform="translate(-565.826 446.692)" fill="url(#ah)"/></g></g><g transform="translate(243.703 507.203)"><g clip-path="url(#ai)"><path d="M536.885-374.127c60.306,23.43,84.616,1.233,84.822-12.836-21.379-1.813-72.447-4.85-84.822,12.836" transform="translate(-536.885 388.376)" fill="url(#aj)"/></g></g><g transform="translate(33.356 342.923)"><g clip-path="url(#ak)"><path d="M294.42-577.775c-2.193,49.985,49.7,47.245,74.078,47.57-7.654-10.518-50.157-48.553-74.078-47.57" transform="translate(-294.352 577.793)" fill="url(#al)"/></g></g><g transform="translate(6.119 273.72)"><g clip-path="url(#am)"><path d="M263.006-657.585c-1.662,40.7,32.159,61.157,64.767,60.533-9.843-19.663-36.01-56.965-64.767-60.533" transform="translate(-262.948 657.585)" fill="url(#an)"/></g></g><g transform="translate(2.589 208.601)"><g clip-path="url(#ao)"><path d="M300.355-668.865c-4.528-17.552-10.923-48.658-39.3-63.8-10.728,36.559,20.695,61.4,39.3,63.8" transform="translate(-258.877 732.669)" fill="url(#ap)"/></g></g><g transform="translate(0 151.714)"><g clip-path="url(#aq)"><path d="M291.185-735.372c-1.462-19.053-13.5-56.937-31.666-62.888-14.683,44.733,19.131,59.34,31.666,62.888" transform="translate(-255.892 798.259)" fill="url(#ar)"/></g></g><g transform="translate(8.485 84.062)"><g clip-path="url(#as)"><path d="M290.828-794.381c1.407-17.371,3.211-58.009-20.01-81.883-16.443,54.784,11.017,77.406,20.01,81.883" transform="translate(-265.676 876.263)" fill="url(#at)"/></g></g><g transform="translate(558.961 344.329)"><g clip-path="url(#au)"><path d="M904.068-492.1c-7.675-21.544-4.626-59.222,21.262-84.07C943.9-544,924.284-507.256,904.068-492.1" transform="translate(-900.382 576.172)" fill="url(#av)"/></g></g><g transform="translate(599.632 296.237)"><g clip-path="url(#aw)"><path d="M962.735-631.622c9.65,10.261,24.082,51.579-8.077,85.191-9.941-24.212-12.144-61.447,8.077-85.191" transform="translate(-947.276 631.622)" fill="url(#ax)"/></g></g><g transform="translate(643.057)"><g clip-path="url(#ay)"><path d="M997.346-973.188c40.085,41.64,45.375,74.437,33.984,115.221-17.7-17.057-32.6-66.12-33.984-115.221" transform="translate(-997.346 973.188)" fill="url(#az)"/></g></g><g transform="translate(627.984 246.218)"><g clip-path="url(#ba)"><path d="M989.9-689.3c21.614,12.851,19.194,54.114,6.414,75.581-14.434-20-24.976-44.856-6.414-75.581" transform="translate(-979.967 689.296)" fill="url(#bb)"/></g></g><g transform="translate(639.012 196.161)"><g clip-path="url(#bc)"><path d="M995.588-747.011c13.08,4.467,37.085,29.869,26.176,66.55-16.614-13.464-36.668-41.888-26.176-66.55" transform="translate(-992.682 747.011)" fill="url(#bd)"/></g></g><g transform="translate(641.314 139.902)"><g clip-path="url(#be)"><path d="M996.872-811.879c9.648,2.758,37.218,25.548,32.22,66.289-18.1-10.306-39.75-29.827-32.22-66.289" transform="translate(-995.336 811.879)" fill="url(#bf)"/></g></g><g transform="translate(637.375 84.95)"><g clip-path="url(#bg)"><path d="M1029.328-807.947c-17.074-7.84-42.669-40.6-37.966-67.292,17.231,5.181,39,36.975,37.966,67.292" transform="translate(-990.794 875.239)" fill="url(#bh)"/></g></g><g transform="translate(558.616 406.861)"><g clip-path="url(#bi)"><path d="M899.984-475.773c25.809-24.37,66.981-33.443,86.413-25.49-26.383,44.808-68.037,36.528-86.413,25.49" transform="translate(-899.984 504.071)" fill="url(#bj)"/></g></g><g transform="translate(510.194 396.025)"><g clip-path="url(#bk)"><path d="M844.513-448.144c-2.36-22.548,6.675-61.149,33.272-68.421,6.443,12.34,7.629,47.338-33.272,68.421" transform="translate(-844.153 516.565)" fill="url(#bl)"/></g></g><g transform="translate(501.378 457.262)"><g clip-path="url(#bm)"><path d="M833.987-431.505c18.551-9.436,63.047-22.395,91.316-8.081-39.263,35.986-81.8,16.462-91.316,8.081" transform="translate(-833.987 445.958)" fill="url(#bn)"/></g></g><g transform="translate(453.478 429.699)"><g clip-path="url(#bo)"><path d="M778.758-417.919c2.008-22.888,14.107-52.684,47.287-59.82,3.619,12.433-1.051,46.324-47.287,59.82" transform="translate(-778.758 477.739)" fill="url(#bp)"/></g></g><g transform="translate(444.177 489.094)"><g clip-path="url(#bq)"><path d="M768.034-403.286c20.563-5.76,76.761-12.553,101.2,7.184-48.383,34.028-93.57,2.517-101.2-7.184" transform="translate(-768.034 409.256)" fill="url(#br)"/></g></g><g transform="translate(383.937 456.626)"><g clip-path="url(#bs)"><path d="M698.577-398.718c5.908-29.383,36.045-42.513,59.68-47.974,2.05,29.165-27.71,45.619-59.68,47.974" transform="translate(-698.577 446.692)" fill="url(#bt)"/></g></g><g transform="translate(383.996 507.203)"><g clip-path="url(#bu)"><path d="M783.466-374.127c-60.307,23.43-84.616,1.233-84.821-12.836,21.377-1.813,72.444-4.85,84.821,12.836" transform="translate(-698.645 388.376)" fill="url(#bv)"/></g></g><g transform="translate(605.019 342.923)"><g clip-path="url(#bw)"><path d="M1027.565-577.775c2.192,49.985-49.7,47.245-74.078,47.57,7.654-10.518,50.157-48.553,74.078-47.57" transform="translate(-953.487 577.793)" fill="url(#bx)"/></g></g><g transform="translate(641.575 273.72)"><g clip-path="url(#by)"><path d="M1060.4-657.585c1.662,40.7-32.159,61.157-64.767,60.533,9.843-19.663,36.01-56.965,64.767-60.533" transform="translate(-995.638 657.585)" fill="url(#bz)"/></g></g><g transform="translate(668.453 208.601)"><g clip-path="url(#ca)"><path d="M1026.628-668.865c4.528-17.552,10.923-48.658,39.3-63.8,10.729,36.559-20.694,61.4-39.3,63.8" transform="translate(-1026.628 732.669)" fill="url(#cb)"/></g></g><g transform="translate(677.226 151.714)"><g clip-path="url(#cc)"><path d="M1036.743-735.372c1.463-19.053,13.5-56.937,31.668-62.888,14.683,44.733-19.131,59.34-31.668,62.888" transform="translate(-1036.743 798.259)" fill="url(#cd)"/></g></g><g transform="translate(678.15 84.062)"><g clip-path="url(#ce)"><path d="M1038.541-794.381c-1.407-17.371-3.211-58.009,20.01-81.883,16.443,54.784-11.017,77.406-20.01,81.883" transform="translate(-1037.809 876.263)" fill="url(#cf)"/></g></g></g></g></g></svg>