<svg xmlns="http://www.w3.org/2000/svg" xmlns:xlink="http://www.w3.org/1999/xlink" width="864" height="317" viewBox="0 0 864 317"><defs><clipPath id="a"><path d="M406.488-698.51l.349-.335c.048.215.095.428.148.641-.164-.107-.331-.208-.5-.307Zm6.972-6.681q-3.328-3.19-6.647-6.38-5.122-4.916-10.236-9.833a29.9,29.9,0,0,0-4.6,15.951c0,.78.031,1.551.089,2.317.005.061.008.123.016.181a29.935,29.935,0,0,0,4.689,13.757q.774,1.214,1.669,2.353a.014.014,0,0,0,.008.011q3.234,3.1,6.469,6.207l3.559,3.416q.4-.384.8-.767,2.984-2.86,5.965-5.716l2.843-2.728q3.734-3.578,7.465-7.155-6.046-5.806-12.089-11.615Z"/></clipPath><linearGradient id="b" x1="-11.676" y1="16.324" x2="-11.672" y2="16.324" gradientUnits="objectBoundingBox"><stop offset="0" stop-color="#b89038"/><stop offset="0.529" stop-color="#f6e391"/><stop offset="1" stop-color="#d1af6d"/></linearGradient><clipPath id="c"><path d="M506.173-670.925a29.872,29.872,0,0,1-3.788,14.58l-1.184,1.133-12.111,11.607-.1.1-5.657,5.421-17.053,16.343L449.031-638.3q-5.966-5.722-11.927-11.444,3.828-3.678,7.657-7.349v0q4.7-4.508,9.392-9.013,5.966,5.73,11.936,11.463l34.771-33.323a29.992,29.992,0,0,1,5.313,17.041Z"/></clipPath><linearGradient id="d" x1="-6.329" y1="10.388" x2="-6.327" y2="10.388" xlink:href="#b"/><clipPath id="e"><path d="M448.367-738.643l-17.113,16.4-9.805-9.4-4.268-4.092-3.037-2.909,17.113-16.4Z"/></clipPath><linearGradient id="f" x1="-12.101" y1="23.021" x2="-12.097" y2="23.021" xlink:href="#b"/><clipPath id="g"><path d="M470.943-705.264a30.017,30.017,0,0,1-.2,3.427,29.957,29.957,0,0,1-4.679,12.955c-.064.107-.133.211-.2.315l0,0s0,0,0,.005q-4.93,4.728-9.849,9.452h0l-1.975,1.9-5.721,5.491-6.448,6.187q-5.3,5.092-10.608,10.18-2.924,2.806-5.849,5.613L413.48-638.3q-8.626,8.276-17.251,16.555l-31.452-30.141a30.768,30.768,0,0,1-2.952-3.825,29.934,29.934,0,0,1-4.947-16.493,29.907,29.907,0,0,1,4.592-15.937l34.951,33.5q5.972-5.73,11.936-11.463,2.92-2.806,5.844-5.612,1.742-1.676,3.489-3.351,1.678-1.614,3.361-3.229l.531-.508,1.116-1.073q4.28-4.108,8.557-8.22l5.7-5.477,12.091-11.612,7.016-6.74q5.026-4.822,10.044-9.647a29.928,29.928,0,0,1,4.832,16.312Z"/></clipPath><linearGradient id="h" x1="-3.129" y1="7.228" x2="-3.128" y2="7.228" xlink:href="#b"/><clipPath id="i"><path d="M335.623-594.279c3.567-9.593,2.149-26.372-9.88-37.437C317.113-617.389,326.23-601.026,335.623-594.279Z"/></clipPath><linearGradient id="j" x1="-21.411" y1="16.874" x2="-21.402" y2="16.874" xlink:href="#b"/><clipPath id="k"><path d="M311.254-653.132c-4.484,4.569-11.191,22.969,3.753,37.937C319.627-625.977,320.65-642.558,311.254-653.132Z"/></clipPath><linearGradient id="l" x1="-24.207" y1="17.216" x2="-24.196" y2="17.216" xlink:href="#b"/><clipPath id="m"><path d="M298.258-785.049C279.633-766.5,277.173-751.9,282.467-733.74,290.691-741.336,297.617-763.183,298.258-785.049Z"/></clipPath><linearGradient id="n" x1="-15.356" y1="15.3" x2="-15.348" y2="15.3" xlink:href="#b"/><clipPath id="o"><path d="M300.646-675.4c-10.044,5.723-8.919,24.1-2.981,33.656C304.371-650.656,309.271-661.724,300.646-675.4Z"/></clipPath><linearGradient id="p" x1="-24.185" y1="20.068" x2="-24.174" y2="20.068" xlink:href="#b"/><clipPath id="q"><path d="M298.787-697.7c-6.077,1.989-17.232,13.3-12.163,29.635C294.345-674.056,303.663-686.713,298.787-697.7Z"/></clipPath><linearGradient id="r" x1="-19.282" y1="23.543" x2="-19.273" y2="23.543" xlink:href="#b"/><clipPath id="s"><path d="M298.355-722.749c-4.484,1.228-17.295,11.377-14.972,29.52C291.791-697.818,301.854-706.512,298.355-722.749Z"/></clipPath><linearGradient id="t" x1="-17.733" y1="24.483" x2="-17.725" y2="24.483" xlink:href="#b"/><clipPath id="u"><path d="M282.994-717.253c7.933-3.492,19.827-18.08,17.641-29.967C292.629-744.911,282.514-730.753,282.994-717.253Z"/></clipPath><linearGradient id="v" x1="-15.79" y1="24.935" x2="-15.783" y2="24.935" xlink:href="#b"/><clipPath id="w"><path d="M337.5-591.268c-11.993-10.852-31.125-14.892-40.155-11.351C309.6-582.665,328.958-586.353,337.5-591.268Z"/></clipPath><linearGradient id="x" x1="-7.405" y1="36.633" x2="-7.402" y2="36.633" xlink:href="#b"/><clipPath id="y"><path d="M359.83-578.227c1.1-10.04-3.1-27.229-15.461-30.468C341.375-603.2,340.824-587.615,359.83-578.227Z"/></clipPath><linearGradient id="z" x1="-19.929" y1="19.978" x2="-19.921" y2="19.978" xlink:href="#b"/><clipPath id="aa"><path d="M364.094-574.989c-8.62-4.2-29.3-9.972-42.432-3.6C339.906-562.563,359.671-571.257,364.094-574.989Z"/></clipPath><linearGradient id="ab" x1="-7.581" y1="47.808" x2="-7.578" y2="47.808" xlink:href="#b"/><clipPath id="ac"><path d="M386.352-567.061c-.933-10.192-6.556-23.46-21.973-26.639C362.7-588.163,364.867-573.071,386.352-567.061Z"/></clipPath><linearGradient id="ad" x1="-16.231" y1="22.287" x2="-16.225" y2="22.287" xlink:href="#b"/><clipPath id="ae"><path d="M390.674-564.592c-9.556-2.565-35.669-5.589-47.024,3.2C366.132-546.24,387.13-560.272,390.674-564.592Z"/></clipPath><linearGradient id="af" x1="-7.308" y1="44.586" x2="-7.305" y2="44.586" xlink:href="#b"/><clipPath id="ag"><path d="M418.666-560.345c-2.745-13.084-16.749-18.932-27.732-21.363C389.98-568.721,403.81-561.395,418.666-560.345Z"/></clipPath><linearGradient id="ah" x1="-14.072" y1="27.23" x2="-14.067" y2="27.23" xlink:href="#b"/><clipPath id="ai"><path d="M379.223-552.841c28.024,10.433,39.32.549,39.415-5.716-9.933-.808-33.664-2.16-39.415,5.716Z"/></clipPath><linearGradient id="aj" x1="-9.621" y1="51.278" x2="-9.618" y2="51.278" xlink:href="#b"/><clipPath id="ak"><path d="M281.513-632.333c-1.02,22.259,23.093,21.039,34.421,21.183C312.378-615.834,292.627-632.77,281.513-632.333Z"/></clipPath><linearGradient id="al" x1="-8.17" y1="29.84" x2="-8.166" y2="29.84" xlink:href="#b"/><clipPath id="am"><path d="M268.851-663.158c-.772,18.124,14.944,27.233,30.1,26.956-4.575-8.756-16.733-25.367-30.1-26.956Z"/></clipPath><linearGradient id="an" x1="-8.924" y1="24.596" x2="-8.92" y2="24.596" xlink:href="#b"/><clipPath id="ao"><path d="M286.458-663.744c-2.1-7.816-5.076-21.669-18.263-28.413C263.211-675.876,277.813-664.813,286.458-663.744Z"/></clipPath><linearGradient id="ap" x1="-13.862" y1="24.36" x2="-13.855" y2="24.36" xlink:href="#b"/><clipPath id="aq"><path d="M282.381-689.484c-.679-8.484-6.275-25.355-14.715-28.005C260.843-697.569,276.555-691.064,282.381-689.484Z"/></clipPath><linearGradient id="ar" x1="-16.218" y1="25.62" x2="-16.21" y2="25.62" xlink:href="#b"/><clipPath id="as"><path d="M281.611-711.152c.653-7.735,1.492-25.832-9.3-36.463C264.673-723.218,277.433-713.145,281.611-711.152Z"/></clipPath><linearGradient id="at" x1="-22.441" y1="20.504" x2="-22.43" y2="20.504" xlink:href="#b"/><clipPath id="au"><path d="M527.429-594.279c-3.567-9.593-2.149-26.372,9.88-37.437C545.94-617.389,536.824-601.026,527.429-594.279Z"/></clipPath><linearGradient id="av" x1="-34.926" y1="16.874" x2="-34.917" y2="16.874" xlink:href="#b"/><clipPath id="aw"><path d="M551.8-653.132c4.483,4.569,11.189,22.969-3.755,37.937C543.425-625.977,542.4-642.558,551.8-653.132Z"/></clipPath><linearGradient id="ax" x1="-43.11" y1="17.216" x2="-43.1" y2="17.216" xlink:href="#b"/><clipPath id="ay"><path d="M564.795-785.049C583.421-766.5,585.88-751.9,580.585-733.74,572.361-741.336,565.436-763.183,564.795-785.049Z"/></clipPath><linearGradient id="az" x1="-30.971" y1="15.3" x2="-30.964" y2="15.3" xlink:href="#b"/><clipPath id="ba"><path d="M562.408-675.4c10.043,5.723,8.919,24.1,2.98,33.656C558.681-650.656,553.783-661.724,562.408-675.4Z"/></clipPath><linearGradient id="bb" x1="-46.02" y1="20.068" x2="-46.009" y2="20.068" xlink:href="#b"/><clipPath id="bc"><path d="M564.265-697.7c6.077,1.989,17.233,13.3,12.163,29.635C568.708-674.056,559.389-686.713,564.265-697.7Z"/></clipPath><linearGradient id="bd" x1="-38.038" y1="23.543" x2="-38.029" y2="23.543" xlink:href="#b"/><clipPath id="be"><path d="M564.7-722.749c4.484,1.228,17.3,11.377,14.972,29.52C571.261-697.818,561.2-706.512,564.7-722.749Z"/></clipPath><linearGradient id="bf" x1="-35.326" y1="24.483" x2="-35.318" y2="24.483" xlink:href="#b"/><clipPath id="bg"><path d="M580.06-717.253c-7.935-3.492-19.828-18.08-17.643-29.967C570.424-744.911,580.539-730.753,580.06-717.253Z"/></clipPath><linearGradient id="bh" x1="-31.366" y1="24.935" x2="-31.358" y2="24.935" xlink:href="#b"/><clipPath id="bi"><path d="M525.556-591.268c11.995-10.852,31.125-14.892,40.155-11.351C553.451-582.665,534.095-586.353,525.556-591.268Z"/></clipPath><linearGradient id="bj" x1="-13.088" y1="36.633" x2="-13.085" y2="36.633" xlink:href="#b"/><clipPath id="bk"><path d="M503.223-578.227c-1.1-10.04,3.1-27.229,15.461-30.468C521.677-603.2,522.228-587.615,503.223-578.227Z"/></clipPath><linearGradient id="bl" x1="-29.246" y1="19.978" x2="-29.238" y2="19.978" xlink:href="#b"/><clipPath id="bm"><path d="M498.959-574.989c8.621-4.2,29.3-9.972,42.433-3.6C523.147-562.563,503.381-571.257,498.959-574.989Z"/></clipPath><linearGradient id="bn" x1="-11.759" y1="47.808" x2="-11.756" y2="47.808" xlink:href="#b"/><clipPath id="bo"><path d="M476.7-567.061c.932-10.192,6.555-23.46,21.972-26.639C500.356-588.163,498.185-573.071,476.7-567.061Z"/></clipPath><linearGradient id="bp" x1="-21.262" y1="22.287" x2="-21.256" y2="22.287" xlink:href="#b"/><clipPath id="bq"><path d="M472.379-564.592c9.556-2.565,35.669-5.589,47.024,3.2C496.92-546.24,475.923-560.272,472.379-564.592Z"/></clipPath><linearGradient id="br" x1="-10.046" y1="44.586" x2="-10.043" y2="44.586" xlink:href="#b"/><clipPath id="bs"><path d="M444.388-560.345c2.744-13.084,16.748-18.932,27.731-21.363C473.072-568.721,459.243-561.395,444.388-560.345Z"/></clipPath><linearGradient id="bt" x1="-15.998" y1="27.23" x2="-15.994" y2="27.23" xlink:href="#b"/><clipPath id="bu"><path d="M483.829-552.841c-28.024,10.433-39.32.549-39.415-5.716C454.348-559.365,478.079-560.717,483.829-552.841Z"/></clipPath><linearGradient id="bv" x1="-11.275" y1="51.278" x2="-11.272" y2="51.278" xlink:href="#b"/><clipPath id="bw"><path d="M581.541-632.333c1.019,22.259-23.095,21.039-34.423,21.183C550.676-615.834,570.425-632.77,581.541-632.333Z"/></clipPath><linearGradient id="bx" x1="-15.88" y1="29.84" x2="-15.876" y2="29.84" xlink:href="#b"/><clipPath id="by"><path d="M594.2-663.158c.772,18.124-14.943,27.233-30.1,26.956C568.68-644.958,580.839-661.569,594.2-663.158Z"/></clipPath><linearGradient id="bz" x1="-18.727" y1="24.596" x2="-18.722" y2="24.596" xlink:href="#b"/><clipPath id="ca"><path d="M576.6-663.744c2.1-7.816,5.075-21.669,18.261-28.413C599.843-675.876,585.241-664.813,576.6-663.744Z"/></clipPath><linearGradient id="cb" x1="-29.916" y1="24.36" x2="-29.91" y2="24.36" xlink:href="#b"/><clipPath id="cc"><path d="M580.672-689.484c.68-8.484,6.275-25.355,14.716-28.005C602.209-697.569,586.5-691.064,580.672-689.484Z"/></clipPath><linearGradient id="cd" x1="-35.405" y1="25.62" x2="-35.397" y2="25.62" xlink:href="#b"/><clipPath id="ce"><path d="M581.443-711.152c-.655-7.735-1.493-25.832,9.3-36.463C598.381-723.218,585.62-713.145,581.443-711.152Z"/></clipPath><linearGradient id="cf" x1="-48.313" y1="20.504" x2="-48.301" y2="20.504" xlink:href="#b"/><clipPath id="cg"><path d="M741.585-712.816c-.643,1.605-1.124,2.408-2.809,3.051-2.088.723-8.192,1.847-16.061,1.847-11.483,0-25.856-4.9-25.856-18.951s14.453-18.791,25.777-18.791a46.423,46.423,0,0,1,17.183,2.891c1.767.563,2.169-.321,2.731-.321.481,0,.563.321.563,1.365v9.957c0,.643-.8.643-.964.08-2.569-8.672-9.073-12.205-19.512-12.205-9.879,0-19.755,4.9-19.755,16.944,0,12.125,10.359,17.264,19.755,17.264,10.92,0,16.863-5.059,20.877-11.081.4-.643,1.124-.4.883.4Z"/></clipPath><linearGradient id="ch" x1="-14.644" y1="19.757" x2="-14.642" y2="19.757" xlink:href="#b"/><clipPath id="ci"><path d="M764.228-718.036c0,6.424.4,7.548,7.067,7.548h6.825c7.067,0,12.127-.883,15.257-9.155.241-.561.964-.4.884.081l-1.445,4.817c-1.124,3.855-2.489,6.023-6.345,6.023H769.849c-3.453,0-5.059-.16-8.432-.16-2.649,0-5.139.16-7.869.16-.4,0-.641-.241-.641-.4a.63.63,0,0,1,.641-.481c4.819,0,6.1-3.775,6.1-7.791v-18.469c0-2.891-.24-4.416-.8-5.379-1.044-1.848-3.453-2.731-5.22-2.812-.8,0-1.605,0-1.605-.48,0-.4.481-.4,1.284-.4,2.891,0,5.3.161,8.111.161,2.891,0,5.783-.161,9.075-.161.883,0,1.284,0,1.284.4,0,.48-.721.48-1.525.48-1.767.081-4.256.964-5.3,2.812-.481.963-.723,2.488-.723,5.379Z"/></clipPath><linearGradient id="cj" x1="-17.802" y1="20.569" x2="-17.798" y2="20.569" xlink:href="#b"/><clipPath id="ck"><path d="M806.223-749.353c-.563.32-1.205-.241-.481-.884,4.095-3.532,9.555-6.664,11.161-6.664.883,0,3.533,2.088,3.533,2.569,0,.24-.241.643-.563.643A30.344,30.344,0,0,0,806.223-749.353Zm.8,13.489c0-2.891-.241-4.416-.8-5.379-1.044-1.848-3.453-2.731-5.22-2.812-.8,0-1.605,0-1.605-.48,0-.4.481-.4,1.284-.4,3.212,0,5.46.161,8.512.161,2.651,0,5.7-.161,8.672-.161.884,0,1.285,0,1.285.4,0,.48-.723.48-1.525.48-1.767.081-4.256.964-5.3,2.812-.481.963-.723,2.488-.723,5.379v18.069c0,2.891.241,4.336.723,5.38,1.044,1.847,3.533,2.729,5.3,2.811.8,0,1.525,0,1.525.481,0,.4-.4.4-1.285.4-3.131,0-5.861-.16-8.833-.16-2.648,0-5.219.16-8.351.16-.8,0-1.284,0-1.284-.4,0-.481.8-.481,1.605-.481,1.767-.081,4.176-.964,5.22-2.811.561-1.044.8-2.489.8-5.38Z"/></clipPath><linearGradient id="cl" x1="-37.997" y1="15.71" x2="-37.99" y2="15.71" xlink:href="#b"/><clipPath id="cm"><path d="M836.415-740.922v24.733c0,3.695.481,6.585,5.943,6.585.481,0,1.044,0,1.044.481,0,.321-.321.4-.723.4-2.248,0-5.541-.16-7.709-.16-2.569,0-5.139.16-7.709.16-.481,0-.8-.08-.8-.4,0-.481.643-.481,1.124-.481,5.059,0,6.1-2.329,6.1-6.585v-23.047c0-2.088-1.285-4.819-6.1-4.819-.4,0-1.124,0-1.124-.48,0-.323.321-.4.8-.4h8.271c3.052,0,3.213,0,4.577,1.205l30.756,28.667v-22.324c0-3.693-.4-6.665-5.863-6.665-.16,0-.963,0-.963-.48,0-.323.32-.4.8-.4,2.168,0,5.3.161,7.468.161,2.569,0,4.979-.161,7.548-.161.481,0,.8.08.8.4,0,.48-.964.48-1.124.48-4.9,0-5.941,2.571-5.941,6.665v27.223c0,1.928-.081,2.489-.483,2.489s-.883-.161-2.409-1.605Z"/></clipPath><linearGradient id="cn" x1="-15.248" y1="19.993" x2="-15.245" y2="19.993" xlink:href="#b"/><clipPath id="co"><path d="M894.952-735.864c0-2.891-.24-4.416-.8-5.379-1.044-1.848-3.453-2.731-5.219-2.812-.8,0-1.607,0-1.607-.48,0-.4.481-.4,1.284-.4,3.213,0,5.461.161,8.512.161,2.651,0,5.7-.161,8.672-.161.885,0,1.285,0,1.285.4,0,.48-.721.48-1.524.48-1.768.081-4.257.964-5.3,2.812-.481.963-.723,2.488-.723,5.379v18.069c0,2.891.241,4.336.723,5.38,1.044,1.847,3.533,2.729,5.3,2.811.8,0,1.524,0,1.524.481,0,.4-.4.4-1.285.4-3.131,0-5.861-.16-8.832-.16-2.649,0-5.22.16-8.352.16-.8,0-1.284,0-1.284-.4,0-.481.8-.481,1.607-.481,1.765-.081,4.175-.964,5.219-2.811.563-1.044.8-2.489.8-5.38Z"/></clipPath><linearGradient id="cp" x1="-44.92" y1="20.569" x2="-44.913" y2="20.569" xlink:href="#b"/><clipPath id="cq"><path d="M958.792-712.816c-.643,1.605-1.125,2.408-2.811,3.051-2.088.723-8.191,1.847-16.061,1.847-11.481,0-25.856-4.9-25.856-18.951s14.455-18.791,25.777-18.791a46.433,46.433,0,0,1,17.184,2.891c1.767.563,2.168-.321,2.729-.321.483,0,.563.321.563,1.365v9.957c0,.643-.8.643-.963.08-2.571-8.672-9.075-12.205-19.513-12.205-9.877,0-19.755,4.9-19.755,16.944,0,12.125,10.359,17.264,19.755,17.264,10.92,0,16.863-5.059,20.877-11.081.4-.643,1.124-.4.884.4Z"/></clipPath><linearGradient id="cr" x1="-19.209" y1="19.757" x2="-19.206" y2="19.757" xlink:href="#b"/><clipPath id="cs"><path d="M980.231-722.292h21.52l-10.68-17.667Zm22.565,1.765H979.107l-2.971,4.9a8.171,8.171,0,0,0-1.527,3.855c0,1.284.965,2.168,3.533,2.168.8,0,1.527,0,1.527.481,0,.321-.4.4-1.2.4-2.491,0-4.82-.16-7.308-.16-2.409,0-4.016.16-6.344.16-.8,0-1.285-.08-1.285-.483s.8-.481,1.607-.481c4.416,0,7.147-3.613,8.993-6.665l15.739-25.293c-1.445-1.848-3.775-2.411-6.023-2.411-.963,0-1.124-.883,0-.883h6.585c2.649,0,3.533.563,4.336,1.927l17.184,28.347c2.008,3.293,3.695,5.06,6.585,5.06,1.044,0,1.525.08,1.525.481,0,.321-.4.4-1.445.4-2.729,0-3.212-.16-6.1-.16-2.971,0-5.861.16-8.753.16-1.044,0-1.364-.08-1.364-.4,0-.4.4-.481,1.364-.481,2.329,0,3.775-.563,3.775-2.008a5.807,5.807,0,0,0-1.043-2.811Z"/></clipPath><linearGradient id="ct" x1="-17.044" y1="20.569" x2="-17.042" y2="20.569" xlink:href="#b"/><clipPath id="cu"><path d="M1060.852-734.257c0,.321,0,.643-.321.723s-.481-.241-.561-.561c-1.527-7.147-8.995-9.315-16.7-9.315-7.067,0-13.731,1.685-13.731,6.344,0,10.519,33.485,1.284,33.485,17.906,0,7.548-7.227,11.241-19.755,11.241-10.439,0-13.651-1.927-15.657-2.891-1.445-.723-.885.8-1.527.964-.561.16-.883-.643-1.124-2.329l-1.285-8.511c-.08-.563-.08-.964.241-1.044.4-.081.483.24.643.8,2.731,9.155,10.439,10.679,18.709,10.679,9.234,0,16.141-2.087,16.141-7.949,0-13.169-33.487-2.729-33.487-17.747,0-7.708,9.155-9.716,17.345-9.716a37.244,37.244,0,0,1,13.652,2.409c1.525.563.883-.8,1.685-.8.321,0,.483.241.884,2.411Z"/></clipPath><linearGradient id="cv" x1="-25.985" y1="19.757" x2="-25.982" y2="19.757" xlink:href="#b"/><clipPath id="cw"><path d="M713.78-660.618c-4.7-8.131-9.395-16.441-19.149-16.441-1.808,0-3.615,0-3.615-1.084,0-.9,1.264-.9,3.252-.9,6.505,0,11.2.361,17.887.361,6.5,0,11.743-.361,18.247-.361,1.987,0,3.613,0,3.613.9,0,1.084-1.988,1.084-3.793,1.084-5.6,0-9.215,1.084-9.215,4.7,0,1.447.723,3.253,2.168,5.6l43,76.6,43.36-74.072c1.627-2.891,2.348-5.24,2.348-7.047,0-3.975-3.252-5.781-8.491-5.781-1.807,0-3.433,0-3.433-1.084s.9-.9,2.711-.9c5.42,0,11.2.361,16.26.361,5.239,0,11.02-.361,16.26-.361,1.445,0,2.348,0,2.348.723,0,1.084-1.445,1.264-3.252,1.264-9.936,0-15.9,8.853-20.053,15.719l-47.515,80.577c-1.988,3.251-2.891,4.335-3.613,4.335-.9,0-1.807-1.084-3.613-4.335Z"/></clipPath><linearGradient id="cx" x1="-4.716" y1="6.617" x2="-4.715" y2="6.617" xlink:href="#b"/><clipPath id="cy"><path d="M882.346-662.425c0-4.156-.541-6.5-1.445-8.311-2.348-4.155-8.491-6.143-12.465-6.324-1.807,0-3.975,0-3.975-1.084,0-.9,1.445-.9,3.252-.9,7.407,0,14.813.361,20.053.361,5.6,0,12.647-.361,20.416-.361,1.807,0,3.252,0,3.252.9,0,1.084-2.168,1.084-3.975,1.084-3.975.181-10.117,2.169-12.465,6.324-.9,1.807-1.447,4.155-1.447,8.311v63.775c0,6.5.181,9.756,1.447,12.105,2.348,4.155,8.491,6.141,12.465,6.323,1.807,0,3.975,0,3.975,1.084,0,.9-1.445.9-3.252.9-7.407,0-14.815-.361-20.055-.361-5.6,0-12.647.361-20.415.361-1.807,0-3.252,0-3.252-.9,0-1.084,2.168-1.084,3.975-1.084,3.975-.181,10.117-2.168,12.465-6.323,1.265-2.349,1.445-5.6,1.445-12.105Z"/></clipPath><linearGradient id="cz" x1="-18.403" y1="6.736" x2="-18.4" y2="6.736" xlink:href="#b"/><clipPath id="da"><path d="M1019.292-626.112c22.4,0,33.965-6.5,33.965-24.209s-11.744-23.667-34.147-23.667H998.7c-17.164,0-17.885.181-17.885,14.272v33.244a.387.387,0,0,0,.36.36ZM953.35-676.878c-2.168,0-4.517,0-4.517-1.085s1.445-1.083,3.432-1.083c9.4,0,15.357.361,22.945.361,15.176,0,38.663-.361,43.9-.361,18.428,0,48.239,3.793,48.239,28.725,0,25.113-29.629,29.268-48.057,29.268H981.171a.389.389,0,0,0-.36.363v18.427c0,20.416,7.225,21.86,16.44,21.86,2.168,0,4.517,0,4.517,1.084s-1.445,1.084-3.433,1.084c-9.395,0-15.176-.361-22.764-.361s-14.092.361-23.487.361c-1.987,0-3.432,0-3.432-1.084S951-580.4,953.168-580.4c9.215,0,16.44-1.444,16.44-21.86v-58.355c0-13.912-7.045-16.26-16.259-16.26Z"/></clipPath><linearGradient id="db" x1="-7.992" y1="6.736" x2="-7.991" y2="6.736" xlink:href="#b"/><clipPath id="dd"><rect width="864" height="317"/></clipPath></defs><g id="dc" clip-path="url(#dd)"><g transform="translate(-233.665 828.477)"><path d="M655.354-795.853v258.375" fill="none" stroke="#707070" stroke-miterlimit="10" stroke-width="4.019"/><g clip-path="url(#a)"><path d="M406.488-698.51l.349-.335c.048.215.095.428.148.641-.164-.107-.331-.208-.5-.307Zm6.972-6.681q-3.328-3.19-6.647-6.38-5.122-4.916-10.236-9.833a29.9,29.9,0,0,0-4.6,15.951c0,.78.031,1.551.089,2.317.005.061.008.123.016.181a29.935,29.935,0,0,0,4.689,13.757q.774,1.214,1.669,2.353a.014.014,0,0,0,.008.011q3.234,3.1,6.469,6.207l3.559,3.416q.4-.384.8-.767,2.984-2.86,5.965-5.716l2.843-2.728q3.734-3.578,7.465-7.155-6.046-5.806-12.089-11.615" fill="url(#b)"/></g><g clip-path="url(#c)"><path d="M506.173-670.925a29.872,29.872,0,0,1-3.788,14.58l-1.184,1.133-12.111,11.607-.1.1-5.657,5.421-17.053,16.343L449.031-638.3q-5.966-5.722-11.927-11.444,3.828-3.678,7.657-7.349v0q4.7-4.508,9.392-9.013,5.966,5.73,11.936,11.463l34.771-33.323a29.992,29.992,0,0,1,5.313,17.041" fill="url(#d)"/></g><g clip-path="url(#e)"><path d="M448.367-738.643l-17.113,16.4-9.805-9.4-4.268-4.092-3.037-2.909,17.113-16.4,17.111,16.4" fill="url(#f)"/></g><g clip-path="url(#g)"><path d="M470.943-705.264a30.017,30.017,0,0,1-.2,3.427,29.957,29.957,0,0,1-4.679,12.955c-.064.107-.133.211-.2.315l0,0s0,0,0,.005q-4.93,4.728-9.849,9.452h0l-1.975,1.9-5.721,5.491-6.448,6.187q-5.3,5.092-10.608,10.18-2.924,2.806-5.849,5.613L413.48-638.3q-8.626,8.276-17.251,16.555l-31.452-30.141a30.768,30.768,0,0,1-2.952-3.825,29.934,29.934,0,0,1-4.947-16.493,29.907,29.907,0,0,1,4.592-15.937l34.951,33.5q5.972-5.73,11.936-11.463,2.92-2.806,5.844-5.612,1.742-1.676,3.489-3.351,1.678-1.614,3.361-3.229l.531-.508,1.116-1.073q4.28-4.108,8.557-8.22l5.7-5.477,12.091-11.612,7.016-6.74q5.026-4.822,10.044-9.647a29.928,29.928,0,0,1,4.832,16.312" fill="url(#h)"/></g><g clip-path="url(#i)"><path d="M335.623-594.279c3.567-9.593,2.149-26.372-9.88-37.437-8.631,14.327.487,30.689,9.88,37.437" fill="url(#j)"/></g><g clip-path="url(#k)"><path d="M311.254-653.132c-4.484,4.569-11.191,22.969,3.753,37.937,4.62-10.783,5.643-27.364-3.753-37.937" fill="url(#l)"/></g><g clip-path="url(#m)"><path d="M298.258-785.049C279.633-766.5,277.173-751.9,282.467-733.74c8.224-7.6,15.149-29.444,15.791-51.309" fill="url(#n)"/></g><g clip-path="url(#o)"><path d="M300.646-675.4c-10.044,5.723-8.919,24.1-2.981,33.656,6.707-8.907,11.607-19.975,2.981-33.656" fill="url(#p)"/></g><g clip-path="url(#q)"><path d="M298.787-697.7c-6.077,1.989-17.232,13.3-12.163,29.635,7.72-5.995,17.039-18.652,12.163-29.635" fill="url(#r)"/></g><g clip-path="url(#s)"><path d="M298.355-722.749c-4.484,1.228-17.295,11.377-14.972,29.52,8.408-4.589,18.471-13.283,14.972-29.52" fill="url(#t)"/></g><g clip-path="url(#u)"><path d="M282.994-717.253c7.933-3.492,19.827-18.08,17.641-29.967-8.007,2.308-18.121,16.467-17.641,29.967" fill="url(#v)"/></g><g clip-path="url(#w)"><path d="M337.5-591.268c-11.993-10.852-31.125-14.892-40.155-11.351,12.26,19.953,31.616,16.265,40.155,11.351" fill="url(#x)"/></g><g clip-path="url(#y)"><path d="M359.83-578.227c1.1-10.04-3.1-27.229-15.461-30.468-2.993,5.495-3.544,21.08,15.461,30.468" fill="url(#z)"/></g><g clip-path="url(#aa)"><path d="M364.094-574.989c-8.62-4.2-29.3-9.972-42.432-3.6,18.244,16.025,38.009,7.331,42.432,3.6" fill="url(#ab)"/></g><g clip-path="url(#ac)"><path d="M386.352-567.061c-.933-10.192-6.556-23.46-21.973-26.639-1.683,5.537.488,20.629,21.973,26.639" fill="url(#ad)"/></g><g clip-path="url(#ae)"><path d="M390.674-564.592c-9.556-2.565-35.669-5.589-47.024,3.2,22.483,15.153,43.48,1.121,47.024-3.2" fill="url(#af)"/></g><g clip-path="url(#ag)"><path d="M418.666-560.345c-2.745-13.084-16.749-18.932-27.732-21.363-.953,12.987,12.876,20.313,27.732,21.363" fill="url(#ah)"/></g><g clip-path="url(#ai)"><path d="M379.223-552.841c28.024,10.433,39.32.549,39.415-5.716-9.933-.808-33.664-2.16-39.415,5.716" fill="url(#aj)"/></g><g clip-path="url(#ak)"><path d="M281.513-632.333c-1.02,22.259,23.093,21.039,34.421,21.183-3.556-4.684-23.307-21.62-34.421-21.183" fill="url(#al)"/></g><g clip-path="url(#am)"><path d="M268.851-663.158c-.772,18.124,14.944,27.233,30.1,26.956-4.575-8.756-16.733-25.367-30.1-26.956" fill="url(#an)"/></g><g clip-path="url(#ao)"><path d="M286.458-663.744c-2.1-7.816-5.076-21.669-18.263-28.413-4.984,16.281,9.617,27.344,18.263,28.413" fill="url(#ap)"/></g><g clip-path="url(#aq)"><path d="M282.381-689.484c-.679-8.484-6.275-25.355-14.715-28.005-6.823,19.92,8.889,26.425,14.715,28.005" fill="url(#ar)"/></g><g clip-path="url(#as)"><path d="M281.611-711.152c.653-7.735,1.492-25.832-9.3-36.463-7.64,24.4,5.12,34.469,9.3,36.463" fill="url(#at)"/></g><g clip-path="url(#au)"><path d="M527.429-594.279c-3.567-9.593-2.149-26.372,9.88-37.437,8.631,14.327-.485,30.689-9.88,37.437" fill="url(#av)"/></g><g clip-path="url(#aw)"><path d="M551.8-653.132c4.483,4.569,11.189,22.969-3.755,37.937-4.62-10.783-5.643-27.364,3.755-37.937" fill="url(#ax)"/></g><g clip-path="url(#ay)"><path d="M564.795-785.049C583.421-766.5,585.88-751.9,580.585-733.74c-8.224-7.6-15.149-29.444-15.791-51.309" fill="url(#az)"/></g><g clip-path="url(#ba)"><path d="M562.408-675.4c10.043,5.723,8.919,24.1,2.98,33.656-6.707-8.907-11.605-19.975-2.98-33.656" fill="url(#bb)"/></g><g clip-path="url(#bc)"><path d="M564.265-697.7c6.077,1.989,17.233,13.3,12.163,29.635-7.72-5.995-17.039-18.652-12.163-29.635" fill="url(#bd)"/></g><g clip-path="url(#be)"><path d="M564.7-722.749c4.484,1.228,17.3,11.377,14.972,29.52-8.408-4.589-18.471-13.283-14.972-29.52" fill="url(#bf)"/></g><g clip-path="url(#bg)"><path d="M580.06-717.253c-7.935-3.492-19.828-18.08-17.643-29.967,8.007,2.308,18.121,16.467,17.643,29.967" fill="url(#bh)"/></g><g clip-path="url(#bi)"><path d="M525.556-591.268c11.995-10.852,31.125-14.892,40.155-11.351-12.26,19.953-31.616,16.265-40.155,11.351" fill="url(#bj)"/></g><g clip-path="url(#bk)"><path d="M503.223-578.227c-1.1-10.04,3.1-27.229,15.461-30.468,2.993,5.495,3.544,21.08-15.461,30.468" fill="url(#bl)"/></g><g clip-path="url(#bm)"><path d="M498.959-574.989c8.621-4.2,29.3-9.972,42.433-3.6-18.245,16.025-38.011,7.331-42.433,3.6" fill="url(#bn)"/></g><g clip-path="url(#bo)"><path d="M476.7-567.061c.932-10.192,6.555-23.46,21.972-26.639,1.683,5.537-.488,20.629-21.972,26.639" fill="url(#bp)"/></g><g clip-path="url(#bq)"><path d="M472.379-564.592c9.556-2.565,35.669-5.589,47.024,3.2-22.483,15.153-43.48,1.121-47.024-3.2" fill="url(#br)"/></g><g clip-path="url(#bs)"><path d="M444.388-560.345c2.744-13.084,16.748-18.932,27.731-21.363.953,12.987-12.876,20.313-27.731,21.363" fill="url(#bt)"/></g><g clip-path="url(#bu)"><path d="M483.829-552.841c-28.024,10.433-39.32.549-39.415-5.716,9.933-.808,33.664-2.16,39.415,5.716" fill="url(#bv)"/></g><g clip-path="url(#bw)"><path d="M581.541-632.333c1.019,22.259-23.095,21.039-34.423,21.183,3.557-4.684,23.307-21.62,34.423-21.183" fill="url(#bx)"/></g><g clip-path="url(#by)"><path d="M594.2-663.158c.772,18.124-14.943,27.233-30.1,26.956,4.575-8.756,16.733-25.367,30.1-26.956" fill="url(#bz)"/></g><g clip-path="url(#ca)"><path d="M576.6-663.744c2.1-7.816,5.075-21.669,18.261-28.413,4.985,16.281-9.616,27.344-18.261,28.413" fill="url(#cb)"/></g><g clip-path="url(#cc)"><path d="M580.672-689.484c.68-8.484,6.275-25.355,14.716-28.005,6.821,19.92-8.891,26.425-14.716,28.005" fill="url(#cd)"/></g><g clip-path="url(#ce)"><path d="M581.443-711.152c-.655-7.735-1.493-25.832,9.3-36.463,7.641,24.4-5.12,34.469-9.3,36.463" fill="url(#cf)"/></g><g clip-path="url(#cg)"><path d="M741.585-712.816c-.643,1.605-1.124,2.408-2.809,3.051-2.088.723-8.192,1.847-16.061,1.847-11.483,0-25.856-4.9-25.856-18.951s14.453-18.791,25.777-18.791a46.423,46.423,0,0,1,17.183,2.891c1.767.563,2.169-.321,2.731-.321.481,0,.563.321.563,1.365v9.957c0,.643-.8.643-.964.08-2.569-8.672-9.073-12.205-19.512-12.205-9.879,0-19.755,4.9-19.755,16.944,0,12.125,10.359,17.264,19.755,17.264,10.92,0,16.863-5.059,20.877-11.081.4-.643,1.124-.4.883.4l-2.811,7.549" fill="url(#ch)"/></g><g clip-path="url(#ci)"><path d="M764.228-718.036c0,6.424.4,7.548,7.067,7.548h6.825c7.067,0,12.127-.883,15.257-9.155.241-.561.964-.4.884.081l-1.445,4.817c-1.124,3.855-2.489,6.023-6.345,6.023H769.849c-3.453,0-5.059-.16-8.432-.16-2.649,0-5.139.16-7.869.16-.4,0-.641-.241-.641-.4a.63.63,0,0,1,.641-.481c4.819,0,6.1-3.775,6.1-7.791v-18.469c0-2.891-.24-4.416-.8-5.379-1.044-1.848-3.453-2.731-5.22-2.812-.8,0-1.605,0-1.605-.48,0-.4.481-.4,1.284-.4,2.891,0,5.3.161,8.111.161,2.891,0,5.783-.161,9.075-.161.883,0,1.284,0,1.284.4,0,.48-.721.48-1.525.48-1.767.081-4.256.964-5.3,2.812-.481.963-.723,2.488-.723,5.379v17.828" fill="url(#cj)"/></g><g clip-path="url(#ck)"><path d="M806.223-749.353c-.563.32-1.205-.241-.481-.884,4.095-3.532,9.555-6.664,11.161-6.664.883,0,3.533,2.088,3.533,2.569,0,.24-.241.643-.563.643A30.344,30.344,0,0,0,806.223-749.353Zm.8,13.489c0-2.891-.241-4.416-.8-5.379-1.044-1.848-3.453-2.731-5.22-2.812-.8,0-1.605,0-1.605-.48,0-.4.481-.4,1.284-.4,3.212,0,5.46.161,8.512.161,2.651,0,5.7-.161,8.672-.161.884,0,1.285,0,1.285.4,0,.48-.723.48-1.525.48-1.767.081-4.256.964-5.3,2.812-.481.963-.723,2.488-.723,5.379v18.069c0,2.891.241,4.336.723,5.38,1.044,1.847,3.533,2.729,5.3,2.811.8,0,1.525,0,1.525.481,0,.4-.4.4-1.285.4-3.131,0-5.861-.16-8.833-.16-2.648,0-5.219.16-8.351.16-.8,0-1.284,0-1.284-.4,0-.481.8-.481,1.605-.481,1.767-.081,4.176-.964,5.22-2.811.561-1.044.8-2.489.8-5.38v-18.069" fill="url(#cl)"/></g><g clip-path="url(#cm)"><path d="M836.415-740.922v24.733c0,3.695.481,6.585,5.943,6.585.481,0,1.044,0,1.044.481,0,.321-.321.4-.723.4-2.248,0-5.541-.16-7.709-.16-2.569,0-5.139.16-7.709.16-.481,0-.8-.08-.8-.4,0-.481.643-.481,1.124-.481,5.059,0,6.1-2.329,6.1-6.585v-23.047c0-2.088-1.285-4.819-6.1-4.819-.4,0-1.124,0-1.124-.48,0-.323.321-.4.8-.4h8.271c3.052,0,3.213,0,4.577,1.205l30.756,28.667v-22.324c0-3.693-.4-6.665-5.863-6.665-.16,0-.963,0-.963-.48,0-.323.32-.4.8-.4,2.168,0,5.3.161,7.468.161,2.569,0,4.979-.161,7.548-.161.481,0,.8.08.8.4,0,.48-.964.48-1.124.48-4.9,0-5.941,2.571-5.941,6.665v27.223c0,1.928-.081,2.489-.483,2.489s-.883-.161-2.409-1.605l-34.288-31.64" fill="url(#cn)"/></g><g clip-path="url(#co)"><path d="M894.952-735.864c0-2.891-.24-4.416-.8-5.379-1.044-1.848-3.453-2.731-5.219-2.812-.8,0-1.607,0-1.607-.48,0-.4.481-.4,1.284-.4,3.213,0,5.461.161,8.512.161,2.651,0,5.7-.161,8.672-.161.885,0,1.285,0,1.285.4,0,.48-.721.48-1.524.48-1.768.081-4.257.964-5.3,2.812-.481.963-.723,2.488-.723,5.379v18.069c0,2.891.241,4.336.723,5.38,1.044,1.847,3.533,2.729,5.3,2.811.8,0,1.524,0,1.524.481,0,.4-.4.4-1.285.4-3.131,0-5.861-.16-8.832-.16-2.649,0-5.22.16-8.352.16-.8,0-1.284,0-1.284-.4,0-.481.8-.481,1.607-.481,1.765-.081,4.175-.964,5.219-2.811.563-1.044.8-2.489.8-5.38v-18.069" fill="url(#cp)"/></g><g clip-path="url(#cq)"><path d="M958.792-712.816c-.643,1.605-1.125,2.408-2.811,3.051-2.088.723-8.191,1.847-16.061,1.847-11.481,0-25.856-4.9-25.856-18.951s14.455-18.791,25.777-18.791a46.433,46.433,0,0,1,17.184,2.891c1.767.563,2.168-.321,2.729-.321.483,0,.563.321.563,1.365v9.957c0,.643-.8.643-.963.08-2.571-8.672-9.075-12.205-19.513-12.205-9.877,0-19.755,4.9-19.755,16.944,0,12.125,10.359,17.264,19.755,17.264,10.92,0,16.863-5.059,20.877-11.081.4-.643,1.124-.4.884.4l-2.811,7.549" fill="url(#cr)"/></g><g clip-path="url(#cs)"><path d="M980.231-722.292h21.52l-10.68-17.667Zm22.565,1.765H979.107l-2.971,4.9a8.171,8.171,0,0,0-1.527,3.855c0,1.284.965,2.168,3.533,2.168.8,0,1.527,0,1.527.481,0,.321-.4.4-1.2.4-2.491,0-4.82-.16-7.308-.16-2.409,0-4.016.16-6.344.16-.8,0-1.285-.08-1.285-.483s.8-.481,1.607-.481c4.416,0,7.147-3.613,8.993-6.665l15.739-25.293c-1.445-1.848-3.775-2.411-6.023-2.411-.963,0-1.124-.883,0-.883h6.585c2.649,0,3.533.563,4.336,1.927l17.184,28.347c2.008,3.293,3.695,5.06,6.585,5.06,1.044,0,1.525.08,1.525.481,0,.321-.4.4-1.445.4-2.729,0-3.212-.16-6.1-.16-2.971,0-5.861.16-8.753.16-1.044,0-1.364-.08-1.364-.4,0-.4.4-.481,1.364-.481,2.329,0,3.775-.563,3.775-2.008a5.807,5.807,0,0,0-1.043-2.811l-3.695-6.1" fill="url(#ct)"/></g><g clip-path="url(#cu)"><path d="M1060.852-734.257c0,.321,0,.643-.321.723s-.481-.241-.561-.561c-1.527-7.147-8.995-9.315-16.7-9.315-7.067,0-13.731,1.685-13.731,6.344,0,10.519,33.485,1.284,33.485,17.906,0,7.548-7.227,11.241-19.755,11.241-10.439,0-13.651-1.927-15.657-2.891-1.445-.723-.885.8-1.527.964-.561.16-.883-.643-1.124-2.329l-1.285-8.511c-.08-.563-.08-.964.241-1.044.4-.081.483.24.643.8,2.731,9.155,10.439,10.679,18.709,10.679,9.234,0,16.141-2.087,16.141-7.949,0-13.169-33.487-2.729-33.487-17.747,0-7.708,9.155-9.716,17.345-9.716a37.244,37.244,0,0,1,13.652,2.409c1.525.563.883-.8,1.685-.8.321,0,.483.241.884,2.411l1.365,7.387" fill="url(#cv)"/></g><g clip-path="url(#cw)"><path d="M713.78-660.618c-4.7-8.131-9.395-16.441-19.149-16.441-1.808,0-3.615,0-3.615-1.084,0-.9,1.264-.9,3.252-.9,6.505,0,11.2.361,17.887.361,6.5,0,11.743-.361,18.247-.361,1.987,0,3.613,0,3.613.9,0,1.084-1.988,1.084-3.793,1.084-5.6,0-9.215,1.084-9.215,4.7,0,1.447.723,3.253,2.168,5.6l43,76.6,43.36-74.072c1.627-2.891,2.348-5.24,2.348-7.047,0-3.975-3.252-5.781-8.491-5.781-1.807,0-3.433,0-3.433-1.084s.9-.9,2.711-.9c5.42,0,11.2.361,16.26.361,5.239,0,11.02-.361,16.26-.361,1.445,0,2.348,0,2.348.723,0,1.084-1.445,1.264-3.252,1.264-9.936,0-15.9,8.853-20.053,15.719l-47.515,80.577c-1.988,3.251-2.891,4.335-3.613,4.335-.9,0-1.807-1.084-3.613-4.335L713.78-660.618" fill="url(#cx)"/></g><g clip-path="url(#cy)"><path d="M882.346-662.425c0-4.156-.541-6.5-1.445-8.311-2.348-4.155-8.491-6.143-12.465-6.324-1.807,0-3.975,0-3.975-1.084,0-.9,1.445-.9,3.252-.9,7.407,0,14.813.361,20.053.361,5.6,0,12.647-.361,20.416-.361,1.807,0,3.252,0,3.252.9,0,1.084-2.168,1.084-3.975,1.084-3.975.181-10.117,2.169-12.465,6.324-.9,1.807-1.447,4.155-1.447,8.311v63.775c0,6.5.181,9.756,1.447,12.105,2.348,4.155,8.491,6.141,12.465,6.323,1.807,0,3.975,0,3.975,1.084,0,.9-1.445.9-3.252.9-7.407,0-14.815-.361-20.055-.361-5.6,0-12.647.361-20.415.361-1.807,0-3.252,0-3.252-.9,0-1.084,2.168-1.084,3.975-1.084,3.975-.181,10.117-2.168,12.465-6.323,1.265-2.349,1.445-5.6,1.445-12.105v-63.775" fill="url(#cz)"/></g><g clip-path="url(#da)"><path d="M1019.292-626.112c22.4,0,33.965-6.5,33.965-24.209s-11.744-23.667-34.147-23.667H998.7c-17.164,0-17.885.181-17.885,14.272v33.244a.387.387,0,0,0,.36.36ZM953.35-676.878c-2.168,0-4.517,0-4.517-1.085s1.445-1.083,3.432-1.083c9.4,0,15.357.361,22.945.361,15.176,0,38.663-.361,43.9-.361,18.428,0,48.239,3.793,48.239,28.725,0,25.113-29.629,29.268-48.057,29.268H981.171a.389.389,0,0,0-.36.363v18.427c0,20.416,7.225,21.86,16.44,21.86,2.168,0,4.517,0,4.517,1.084s-1.445,1.084-3.433,1.084c-9.395,0-15.176-.361-22.764-.361s-14.092.361-23.487.361c-1.987,0-3.432,0-3.432-1.084S951-580.4,953.168-580.4c9.215,0,16.44-1.444,16.44-21.86v-58.355c0-13.912-7.045-16.26-16.259-16.26" fill="url(#db)"/></g></g></g></svg>