<svg xmlns="http://www.w3.org/2000/svg" xmlns:xlink="http://www.w3.org/1999/xlink" width="625" height="627" viewBox="0 0 625 627"><defs><clipPath id="b"><rect width="625" height="627"/></clipPath></defs><g id="a" clip-path="url(#b)"><g transform="translate(11.271 530.183)"><path d="M242.272-383.4C94.976-324.715,8.956-289.835,6.6-287.95a29.75,29.75,0,0,0-5.067,5.656C.354-280.408.118-243.879,0-123.332c0,144,.118,156.841,2,159.9a12.5,12.5,0,0,0,4.713,4.6c4.006,1.885,503.87,1.768,507.4,0a15.864,15.864,0,0,0,4.6-3.889c1.885-2.239,2.121-8.72,2.121-88.613v-86.021l37.708-15.083c20.739-8.249,39-16.144,40.536-17.322,6.835-5.3,9.191,1.532-52.909-154.484-31.7-79.186-58.211-145.175-59.154-146.589-1.885-2.946-6.481-5.185-10.134-5.067C475.471-475.9,369.889-434.3,242.272-383.4ZM522.959-318.47c28.516,71.88,52.084,131.27,52.32,132.1.236,1.061-8.013,4.949-24.392,11.548-13.551,5.421-25.924,10.252-27.338,10.605l-2.71.707V-281.822l-3.417-3.417c-1.885-1.885-4.478-3.417-5.774-3.417-2,0-4.36-5.067-14.376-30.4-14.258-35.587-16.851-40.889-21.093-42.539-1.65-.589-8.6-1.414-15.437-1.65-8.6-.471-14.612-1.414-19.914-3.182-9.427-3.417-23.567-12.726-28.988-19.443-5.421-6.6-9.78-8.366-16.261-6.835-4.713,1.178-239.68,94.387-245.925,97.569a19.111,19.111,0,0,0-5.185,4.006c-2.239,2.357-3.064,2.475-38.3,2.357-27.1,0-35.351-.354-33.348-1.3,2.828-1.414,396.285-158.49,397.463-158.726C470.64-448.915,494.325-390.232,522.959-318.47ZM402.177-362.187c13.433,12.137,33.937,20.975,52.2,22.625l9.309.825,9.9,24.51c5.3,13.551,9.545,24.746,9.309,25.1-.354.236-64.457.354-142.465.236l-141.875-.353,97.8-39.122c53.851-21.446,98.276-39.122,98.865-39.122C395.7-367.607,398.877-365.133,402.177-362.187ZM497.271-123.1V18.9H23.567V-265.089h473.7Z" transform="translate(0 0)" fill="#fff"/><path d="M102.449-275.452c-2.946,1.532-4.6,4.124-9.78,16.144-6.128,13.9-18.5,26.631-32.641,33.466-3.535,1.768-8.838,4.36-11.784,5.774-4.006,2-5.656,3.653-6.717,6.717-2,5.774-2,103.814,0,109.588a10.126,10.126,0,0,0,5.538,6.128c2.239,1.061,8.366,3.889,13.551,6.363C77-83.614,88.191-70.417,97.029-48.028c3.417,8.484-6.952,8.013,158.49,7.659,169.567-.354,150.831,1.061,156.251-12.373C419.9-73.127,435.22-88.328,454.663-95.4c12.609-4.6,12.019-.943,11.666-64.575l-.354-54.558-2.946-2.71c-1.65-1.532-6.6-4.242-10.959-6.128-18.5-7.659-28.87-17.793-39.122-38.65-4.006-8.131-6.835-12.491-8.838-13.433C399.751-277.691,106.691-277.574,102.449-275.452ZM393.624-247.29c7.542,16.261,24.274,33.348,41.479,42.186l7.9,4.124v84.96l-7.188,3.417c-17.322,8.131-32.994,23.921-41.832,42.186l-3.3,6.717H116.825l-5.656-10.134a96.366,96.366,0,0,0-39.475-38.533l-7.542-4.006-.354-42.3L63.563-201.1l6.717-3.3C88.9-213.47,107.516-232.442,114-248.821l1.768-4.6H390.8Z" transform="translate(7.139 35.462)" fill="#fff"/><path d="M216.583-235.3a71,71,0,0,0-55.265,65.4c-1.885,33.466,19.207,62.925,52.084,72.587,10.959,3.182,28.163,2.71,40.064-1.178,23.214-7.424,41.714-27.456,47.253-50.905,2.592-11.194,1.768-28.988-1.768-39.357-7.306-20.975-25.1-38.3-46.074-44.9C242.861-236.835,226.364-237.542,216.583-235.3Zm32.523,25.571c12.255,4.6,22.153,15.083,27.456,29.106,3.653,9.78,2.828,23.921-2,34.29a47.294,47.294,0,0,1-63.043,22.742,46.836,46.836,0,0,1-12.962-75.533C211.87-212.442,231.077-216.449,249.106-209.732Z" transform="translate(28.753 42.683)" fill="#fff"/><path d="M105.463-189.408c-6.363,3.3-9.663,8.484-9.663,15.672,0,10.016,7.188,17.086,17.322,17.086a20.61,20.61,0,0,0,9.073-2.121c7.9-4.6,10.723-15.908,6.128-23.921-2.357-4.124-10.841-9.309-15.2-9.309C111.826-192,108.291-190.822,105.463-189.408Zm13.08,13.551a5.528,5.528,0,0,1-5.656,7.188c-3.889-.471-5.656-3.182-4.6-7.188C109.469-180.806,116.657-180.806,118.542-175.856Z" transform="translate(17.088 50.639)" fill="#fff"/><path d="M329.834-191.006c-5.42,1.768-7.9,3.535-10.487,7.777-2.121,3.417-2.592,5.538-2.121,10.723.471,5.538,1.178,7.188,4.831,10.841,3.771,3.653,5.067,4.242,11.077,4.6,8.838.589,13.669-2.239,17.086-9.78,2.71-6.128,2.239-11.9-1.532-17.086C344.446-190.063,336.315-193.009,329.834-191.006Zm9.545,14.258a5.512,5.512,0,0,1-3.3,7.9c-3.889.943-6.6-.825-7.07-4.713C328.3-179.222,336.668-181.814,339.379-176.747Z" transform="translate(56.553 50.705)" fill="#fff"/></g></g></svg>