<svg width="512" height="512" viewBox="0 0 512 512" fill="none" xmlns="http://www.w3.org/2000/svg">
<path d="M48 336L464 336C472.837 336 480 328.837 480 320L480 96C480 87.1634 472.837 80 464 80L48 80C39.1635 80 32 87.1634 32 96L32 320C32 328.837 39.1635 336 48 336Z" stroke="#32D673" stroke-width="32" stroke-linejoin="round"/>
<path d="M64 384H448M96 432H416" stroke="#32D673" stroke-width="32" stroke-linecap="round" stroke-linejoin="round"/>
<path d="M256 288C300.183 288 336 252.183 336 208C336 163.817 300.183 128 256 128C211.817 128 176 163.817 176 208C176 252.183 211.817 288 256 288Z" stroke="#32D673" stroke-width="32" stroke-linecap="round" stroke-linejoin="round"/>
<path d="M480 160C458.783 160 438.434 151.571 423.431 136.569C408.429 121.566 400 101.217 400 80M32 160C42.5057 160 52.9086 157.931 62.6147 153.91C72.3207 149.89 81.1399 143.997 88.5685 136.569C95.9972 129.14 101.89 120.321 105.91 110.615C109.931 100.909 112 90.5057 112 80M480 256C458.783 256 438.434 264.429 423.431 279.431C408.429 294.434 400 314.783 400 336M32 256C42.5057 256 52.9086 258.069 62.6147 262.09C72.3207 266.11 81.1399 272.003 88.5685 279.431C95.9972 286.86 101.89 295.679 105.91 305.385C109.931 315.091 112 325.494 112 336" stroke="#32D673" stroke-width="32" stroke-linecap="round" stroke-linejoin="round"/>
</svg>
