<svg width="512" height="512" viewBox="0 0 512 512" fill="none" xmlns="http://www.w3.org/2000/svg">
<path d="M416 144H96C69.4903 144 48 165.49 48 192V384C48 410.51 69.4903 432 96 432H416C442.51 432 464 410.51 464 384V192C464 165.49 442.51 144 416 144Z" stroke="#37B4AA" stroke-width="32" stroke-linejoin="round"/>
<path d="M411.36 144V114C411.358 106.642 409.731 99.3753 406.597 92.7183C403.463 86.0612 398.898 80.178 393.229 75.4882C387.559 70.7985 380.924 67.4179 373.797 65.5876C366.671 63.7574 359.228 63.5226 352 64.9L88.64 109.85C77.2032 112.029 66.8855 118.132 59.4665 127.104C52.0474 136.077 47.9921 147.357 48 159V208" fill="#37B4AA"/>
<path d="M411.36 144V114C411.358 106.642 409.731 99.3753 406.597 92.7183C403.463 86.0612 398.898 80.178 393.229 75.4882C387.559 70.7985 380.924 67.4179 373.797 65.5876C366.671 63.7574 359.228 63.5226 352 64.9L88.64 109.85C77.2032 112.029 66.8855 118.132 59.4665 127.104C52.0474 136.077 47.9921 147.357 48 159V208" stroke="#37B4AA" stroke-width="32" stroke-linejoin="round"/>
<path d="M368 320C361.671 320 355.484 318.123 350.222 314.607C344.959 311.091 340.858 306.093 338.436 300.246C336.014 294.399 335.38 287.965 336.615 281.757C337.85 275.55 340.897 269.848 345.373 265.373C349.848 260.897 355.55 257.85 361.757 256.615C367.964 255.38 374.399 256.014 380.246 258.436C386.093 260.858 391.091 264.959 394.607 270.222C398.123 275.484 400 281.671 400 288C400 296.487 396.629 304.626 390.627 310.627C384.626 316.629 376.487 320 368 320Z" fill="#37B4AA"/>
</svg>
