<svg xmlns="http://www.w3.org/2000/svg" xmlns:xlink="http://www.w3.org/1999/xlink" width="625" height="627" viewBox="0 0 625 627"><defs><clipPath id="b"><rect width="625" height="627"/></clipPath></defs><g id="a" clip-path="url(#b)"><g transform="translate(0.494 323.157)"><path d="M226.255-307.275c-22.384,7.058-28.838,12.5-91.151,74.413C101.426-199.386,74-171.355,74-170.549s6.252,1.613,13.713,1.613c16.536,0,34.484,4.437,46.786,11.495,5.042,2.823,32.669,28.636,61.709,57.474C243.8-52.778,249.446-47.938,255.5-47.938s11.7-4.84,60.3-53.037c44.164-43.761,55.659-54.247,65.137-58.684a100.669,100.669,0,0,1,41.744-9.276h9.276l-59.49-59.49c-32.669-32.871-64.129-62.717-69.775-66.548C287.157-305.259,270.62-310.1,251.059-309.9,241.783-309.9,230.691-308.687,226.255-307.275Z" transform="translate(61.902 0)" fill="#fff"/><path d="M70.563-190.193C50.2-169.623,30.634-148.449,27.206-142.8,9.863-115.174,8.451-80.085,23.374-50.037c2.218,4.437,22.183,26.216,44.769,49L108.677,39.9l30.249-.6c27.023-.6,31.258-1.21,40.332-5.445,7.462-3.63,24.2-18.956,63.524-57.877C298.038-78.673,301.466-81.3,317.4-81.3s19.36,2.622,74.615,57.272c39.324,38.921,56.062,54.247,63.524,57.877,8.873,4.235,13.511,4.84,37.307,5.445l27.224.807L558.585.983c34.283-34.686,39.324-40.736,46.382-54.852,7.058-14.52,7.865-17.545,8.47-35.291.6-15.931,0-21.578-3.428-32.064-6.857-19.965-12.3-27.023-52.23-67.557l-37.509-37.711h-24.8c-40.131,0-37.711-1.412-102.444,62.515-56.264,55.457-60.3,58.482-75.825,58.482-15.73,0-19.36-2.823-75.422-58.482-64.935-64.129-60.9-61.91-105.671-62.919l-28.636-.6Z" transform="translate(0 83.772)" fill="#fff"/><path d="M196.715-89.77c-42.349,41.744-55.054,53.239-64.733,58.079A98.9,98.9,0,0,1,86-21H73.5l61.507,61.709c33.879,33.879,65.339,63.927,70.178,66.75,28.838,17.141,67.355,16.536,96.193-1.613,5.647-3.428,37.106-33.274,70.178-66.145l60.1-59.692L416.93-21.406c-34.484-3.63-40.131-7.461-101.638-68.363C267.7-137.16,262.054-142,256-142S244.308-136.958,196.715-89.77Z" transform="translate(61.393 170.693)" fill="#fff"/></g></g></svg>