<?xml version="1.0" encoding="UTF-8" standalone="no"?>
<svg
   xmlns:dc="http://purl.org/dc/elements/1.1/"
   xmlns:cc="http://creativecommons.org/ns#"
   xmlns:rdf="http://www.w3.org/1999/02/22-rdf-syntax-ns#"
   xmlns:svg="http://www.w3.org/2000/svg"
   xmlns="http://www.w3.org/2000/svg"
   viewBox="0 0 1333.3333 1333.3333"
   height="1333.3333"
   width="1333.3333"
   xml:space="preserve"
   id="svg2"
   version="1.1"><metadata
     id="metadata8"><rdf:RDF><cc:Work
         rdf:about=""><dc:format>image/svg+xml</dc:format><dc:type
           rdf:resource="http://purl.org/dc/dcmitype/StillImage" /></cc:Work></rdf:RDF></metadata><defs
     id="defs6"><clipPath
       id="clipPath20"
       clipPathUnits="userSpaceOnUse"><path
         id="path18"
         d="m 2056.54,4757.48 c -8,-20 -14,-30 -35,-38 -26,-9 -102.01,-23 -200.01,-23 -143,0 -322.02,61 -322.02,236.01 0,175.01 180.01,234.02 321.02,234.02 133.01,0 197.01,-32 214.01,-36.01 22,-7 27,4.01 34,4.01 6,0 7.01,-4.01 7.01,-17.01 v -124 c 0,-8.01 -10,-8.01 -12.01,-1.01 -32,108.01 -113,152.02 -243.01,152.02 -123.01,0 -246.02,-61.01 -246.02,-211.02 0,-151.01 129.02,-215.01 246.02,-215.01 136,0 210.02,63 260.02,138.01 5,8 14,5 10.99,-5 z" /></clipPath><linearGradient
       id="linearGradient28"
       spreadMethod="pad"
       gradientTransform="matrix(592.632,0,0,-592.632,1499.51,4931.49)"
       gradientUnits="userSpaceOnUse"
       y2="0"
       x2="1"
       y1="0"
       x1="0"><stop
         id="stop22"
         offset="0"
         style="stop-opacity:1;stop-color:#b89038" /><stop
         id="stop24"
         offset="0.529227"
         style="stop-opacity:1;stop-color:#f6e391" /><stop
         id="stop26"
         offset="1"
         style="stop-opacity:1;stop-color:#d1af6d" /></linearGradient><clipPath
       id="clipPath38"
       clipPathUnits="userSpaceOnUse"><path
         id="path36"
         d="m 2388.5,4822.48 c 0,-80 5.01,-94 88,-94 h 85.01 c 88.01,0 151.01,11 190.01,114 3,7.01 12.01,5 11,-0.99 l -18,-60.01 c -14,-48 -30.99,-75 -79,-75 h -207.01 c -43.01,0 -63.01,2 -105.01,2 -33,0 -64.01,-2 -98.01,-2 -5,0 -8,3 -8,5 0,2 3,5.99 8,5.99 60.01,0 76,47.02 76,97.02 v 230.01 c 0,36 -2.99,55.01 -10,67.01 -12.99,23 -42.99,33.99 -65,35 -10,0 -20,0 -20,5.99 0,5 6,5 16,5 36.01,0 66.01,-2 101.01,-2 36,0 72.01,2 113,2 11.01,0 16.01,0 16.01,-5 0,-5.99 -9,-5.99 -19,-5.99 -22.01,-1.01 -53.01,-12 -66.01,-35 -6,-12 -9,-31.01 -9,-67.01 z" /></clipPath><linearGradient
       id="linearGradient46"
       spreadMethod="pad"
       gradientTransform="matrix(526.103,0,0,-526.103,2236.49,4931.99)"
       gradientUnits="userSpaceOnUse"
       y2="0"
       x2="1"
       y1="0"
       x1="0"><stop
         id="stop40"
         offset="0"
         style="stop-opacity:1;stop-color:#b89038" /><stop
         id="stop42"
         offset="0.529227"
         style="stop-opacity:1;stop-color:#f6e391" /><stop
         id="stop44"
         offset="1"
         style="stop-opacity:1;stop-color:#d1af6d" /></linearGradient><clipPath
       id="clipPath56"
       clipPathUnits="userSpaceOnUse"><path
         id="path54"
         d="m 2961.48,5212.51 c -7,-4 -15,3 -5.99,11 51,44 119,83.01 139,83.01 11.01,0 44.01,-26.01 44.01,-32 0,-3 -3,-8 -7.01,-8 -49,-2 -107,-18.01 -170.01,-54.01 z m 10,-168.01 c 0,36 -2.99,55.01 -10,67.01 -12.99,23 -42.99,33.99 -65,35 -10,0 -20,0 -20,5.99 0,5 6,5 16,5 40,0 68.01,-2 106.01,-2 33,0 71,2 108,2 11.01,0 16.01,0 16.01,-5 0,-5.99 -9,-5.99 -19,-5.99 -22.01,-1.01 -53.01,-12 -66.01,-35 -6,-12 -8.99,-31.01 -8.99,-67.01 v -225.01 c 0,-36.01 2.99,-54.01 8.99,-67.01 13,-23 44,-34 66.01,-35.01 10,0 19,0 19,-5.99 0,-5 -5,-5 -16.01,-5 -39,0 -72.99,2 -110.01,2 -32.99,0 -65,-2 -104,-2 -10,0 -16,0 -16,5 0,5.99 10,5.99 20,5.99 22.01,1.01 52.01,12.01 65,35.01 7.01,13 10,31 10,67.01 z" /></clipPath><linearGradient
       id="linearGradient64"
       spreadMethod="pad"
       gradientTransform="matrix(262.012,0,0,-262.012,2876.48,5006.5)"
       gradientUnits="userSpaceOnUse"
       y2="0"
       x2="1"
       y1="0"
       x1="0"><stop
         id="stop58"
         offset="0"
         style="stop-opacity:1;stop-color:#b89038" /><stop
         id="stop60"
         offset="0.529227"
         style="stop-opacity:1;stop-color:#f6e391" /><stop
         id="stop62"
         offset="1"
         style="stop-opacity:1;stop-color:#d1af6d" /></linearGradient><clipPath
       id="clipPath74"
       clipPathUnits="userSpaceOnUse"><path
         id="path72"
         d="m 3387.48,5107.5 v -308.01 c 0,-46.01 6.01,-82.02 74,-82.02 6.01,0 13.01,0 13.01,-5.99 0,-4.01 -4,-5 -9,-5 -28,0 -69.01,2 -96.01,2 -32,0 -64,-2 -96,-2 -6,0 -10,0.99 -10,5 0,5.99 7.99,5.99 14,5.99 63,0 76.01,29.01 76.01,82.02 v 287.01 c 0,26 -16.01,60.01 -76.01,60.01 -5,0 -14,0 -14,5.99 0,4.01 4,5 10,5 h 103 c 38,0 40,0 57.01,-15 l 383.02,-357.02 v 278.02 c 0,46.01 -5,83.01 -73,83.01 -2.01,0 -12.01,0 -12.01,5.99 0,4.01 4.01,5 10,5 27.01,0 66.01,-2 93.01,-2 32,0 62,2 94.01,2 6,0 10,-0.99 10,-5 0,-5.99 -12.01,-5.99 -14.01,-5.99 -60.99,0 -74,-32 -74,-83.01 v -339.02 c 0,-24 -1,-31 -6,-31 -5,0 -10.99,2 -30,20 z" /></clipPath><linearGradient
       id="linearGradient82"
       spreadMethod="pad"
       gradientTransform="matrix(675.039,0,0,-675.039,3263.48,4925.49)"
       gradientUnits="userSpaceOnUse"
       y2="0"
       x2="1"
       y1="0"
       x1="0"><stop
         id="stop76"
         offset="0"
         style="stop-opacity:1;stop-color:#b89038" /><stop
         id="stop78"
         offset="0.529227"
         style="stop-opacity:1;stop-color:#f6e391" /><stop
         id="stop80"
         offset="1"
         style="stop-opacity:1;stop-color:#d1af6d" /></linearGradient><clipPath
       id="clipPath92"
       clipPathUnits="userSpaceOnUse"><path
         id="path90"
         d="m 4166.47,5044.5 c 0,36 -2.99,55.01 -10,67.01 -12.99,23 -42.99,33.99 -65,35 -10,0 -20,0 -20,5.99 0,5 6,5 16,5 40.01,0 68.01,-2 106.01,-2 33,0 71,2 108,2 11.01,0 16.01,0 16.01,-5 0,-5.99 -9,-5.99 -19,-5.99 -22.01,-1.01 -53.01,-12 -66.01,-35 -6,-12 -9,-31.01 -9,-67.01 v -225.01 c 0,-36.01 3,-54.01 9,-67.01 13,-23 44,-34 66.01,-35.01 10,0 19,0 19,-5.99 0,-5 -5,-5 -16.01,-5 -39,0 -72.99,2 -110,2 -33,0 -65.01,-2 -104.01,-2 -10,0 -16,0 -16,5 0,5.99 10,5.99 20,5.99 22.01,1.01 52.01,12.01 65,35.01 7.01,13 10,31 10,67.01 z" /></clipPath><linearGradient
       id="linearGradient100"
       spreadMethod="pad"
       gradientTransform="matrix(246.016,0,0,-246.016,4071.47,4931.99)"
       gradientUnits="userSpaceOnUse"
       y2="0"
       x2="1"
       y1="0"
       x1="0"><stop
         id="stop94"
         offset="0"
         style="stop-opacity:1;stop-color:#b89038" /><stop
         id="stop96"
         offset="0.529227"
         style="stop-opacity:1;stop-color:#f6e391" /><stop
         id="stop98"
         offset="1"
         style="stop-opacity:1;stop-color:#d1af6d" /></linearGradient><clipPath
       id="clipPath110"
       clipPathUnits="userSpaceOnUse"><path
         id="path108"
         d="m 5011.51,4757.48 c -7.99,-20 -14,-30 -35,-38 -26,-9 -102.01,-23 -200.01,-23 -143,0 -322.02,61 -322.02,236.01 0,175.01 180.01,234.02 321.02,234.02 133.01,0 197.01,-32 214.01,-36.01 22,-7 27,4.01 34.01,4.01 5.99,0 7,-4.01 7,-17.01 v -124 c 0,-8.01 -10,-8.01 -12,-1.01 -32.01,108.01 -113.01,152.02 -243.02,152.02 -123.01,0 -246.02,-61.01 -246.02,-211.02 0,-151.01 129.02,-215.01 246.02,-215.01 136,0 210.02,63 260.02,138.01 5,8 14,5 10.99,-5 z" /></clipPath><linearGradient
       id="linearGradient118"
       spreadMethod="pad"
       gradientTransform="matrix(592.632,0,0,-592.632,4454.48,4931.49)"
       gradientUnits="userSpaceOnUse"
       y2="0"
       x2="1"
       y1="0"
       x1="0"><stop
         id="stop112"
         offset="0"
         style="stop-opacity:1;stop-color:#b89038" /><stop
         id="stop114"
         offset="0.529227"
         style="stop-opacity:1;stop-color:#f6e391" /><stop
         id="stop116"
         offset="1"
         style="stop-opacity:1;stop-color:#d1af6d" /></linearGradient><clipPath
       id="clipPath128"
       clipPathUnits="userSpaceOnUse"><path
         id="path126"
         d="m 5328.49,4875.49 h 268.01 l -133,220.01 z m 281.01,-22 h -295.02 l -37,-61.01 c -11,-17 -18.99,-35 -18.99,-48 0,-16 12,-27.01 43.99,-27.01 10.01,0 19,0 19,-5.99 0,-4.01 -5,-5 -15,-5 -30.99,0 -60,2 -91,2 -30,0 -50,-2 -79.01,-2 -10,0 -15.99,0.99 -15.99,5.99 0,5 10,6.01 20,6.01 55,0 89,45 112,83.01 l 196.02,315.02 c -18.01,23 -47.01,30 -75.01,30 -12.01,0 -14,10.99 0,10.99 h 82.01 c 33,0 44,-7 54,-24 l 214.02,-353.02 c 25,-41 45.99,-63.01 82,-63.01 13,0 19,-0.99 19,-5.99 0,-4.01 -5,-5 -18.01,-5 -34,0 -40,2 -76,2 -37,0 -73,-2 -109.01,-2 -12.99,0 -17,0.99 -17,5 0,5 5,5.99 17,5.99 29.01,0 47.01,7.01 47.01,25.01 0,9 -4,20 -13,35 z" /></clipPath><linearGradient
       id="linearGradient136"
       spreadMethod="pad"
       gradientTransform="matrix(704.043,0,0,-704.043,5120.48,4931.99)"
       gradientUnits="userSpaceOnUse"
       y2="0"
       x2="1"
       y1="0"
       x1="0"><stop
         id="stop130"
         offset="0"
         style="stop-opacity:1;stop-color:#b89038" /><stop
         id="stop132"
         offset="0.529227"
         style="stop-opacity:1;stop-color:#f6e391" /><stop
         id="stop134"
         offset="1"
         style="stop-opacity:1;stop-color:#d1af6d" /></linearGradient><clipPath
       id="clipPath146"
       clipPathUnits="userSpaceOnUse"><path
         id="path144"
         d="m 6382.51,5024.5 c 0,-4 0,-8 -4,-9 -4,-1 -6,3 -7,6.99 -19,89.02 -112.01,116.02 -208.01,116.02 -88.01,0 -171.01,-21.01 -171.01,-79.01 0,-131.01 417.02,-16 417.02,-223.01 0,-94.01 -90.01,-140.01 -246.01,-140.01 -130.01,0 -170.01,24 -195.01,36 -18,9 -11.01,-10.01 -19.01,-12 -7,-2 -10.99,8 -14,29 l -16,106.01 c -0.99,6.99 -0.99,11.99 3,13 5,1 6.01,-3 8,-10 34,-114.01 130.01,-133.01 233.02,-133.01 115.01,0 201.01,26 201.01,99.01 0,164.01 -417.03,34 -417.03,221.01 0,96.01 114.01,121.01 216.02,121.01 92,0 151,-23 170.01,-30 19,-7 11,10 21,10 4,0 6,-3 11,-30 z" /></clipPath><linearGradient
       id="linearGradient154"
       spreadMethod="pad"
       gradientTransform="matrix(490.582,0,0,-490.582,5918.93,4931.49)"
       gradientUnits="userSpaceOnUse"
       y2="0"
       x2="1"
       y1="0"
       x1="0"><stop
         id="stop148"
         offset="0"
         style="stop-opacity:1;stop-color:#b89038" /><stop
         id="stop150"
         offset="0.529227"
         style="stop-opacity:1;stop-color:#f6e391" /><stop
         id="stop152"
         offset="1"
         style="stop-opacity:1;stop-color:#d1af6d" /></linearGradient><clipPath
       id="clipPath164"
       clipPathUnits="userSpaceOnUse"><path
         id="path162"
         d="m 6909.48,5051.5 c -28,46 -55.99,95.01 -118,95.01 -10.01,0 -19,0 -19,5 0,5 6,5.99 15,5.99 36.01,0 62,-2 98.01,-2 35.99,0 71,2 107,2 10,0 15,0 15,-5 0,-5.99 -8.99,-5.99 -18.99,-5.99 -34.01,0 -48.01,-11.01 -48.01,-29.01 0,-10 5,-22 13,-36 l 196.01,-319.02 190.01,318.02 c 10,16 15,29.01 15,39.01 0,17.99 -15.99,27 -48,27 -9,0 -18,0 -18,5.99 0,4.01 5,5 18,5 25,0 47.01,-2 77.01,-2 31,0 48,2 78,2 9,0 19,0 19,-5 0,-5.99 -6,-5.99 -19,-5.99 -43,0 -71,-32 -96,-74.01 L 7160.5,4731.48 c -20,-34.01 -23,-35 -28,-35 -4,0 -6,0.99 -26,33 z" /></clipPath><linearGradient
       id="linearGradient172"
       spreadMethod="pad"
       gradientTransform="matrix(708.037,0,0,-708.037,6772.48,4926.99)"
       gradientUnits="userSpaceOnUse"
       y2="0"
       x2="1"
       y1="0"
       x1="0"><stop
         id="stop166"
         offset="0"
         style="stop-opacity:1;stop-color:#b89038" /><stop
         id="stop168"
         offset="0.529227"
         style="stop-opacity:1;stop-color:#f6e391" /><stop
         id="stop170"
         offset="1"
         style="stop-opacity:1;stop-color:#d1af6d" /></linearGradient><clipPath
       id="clipPath182"
       clipPathUnits="userSpaceOnUse"><path
         id="path180"
         d="m 7668.47,5044.5 c 0,36 -3,55.01 -10,67.01 -13,23 -43,33.99 -65,35 -10,0 -20,0 -20,5.99 0,5 5.99,5 15.99,5 40.01,0 68.01,-2 106.01,-2 33.01,0 71,2 108.01,2 11,0 16,0 16,-5 0,-5.99 -9,-5.99 -19,-5.99 -22,-1.01 -53.01,-12 -66.01,-35 -5.99,-12 -9,-31.01 -9,-67.01 v -225.01 c 0,-36.01 3.01,-54.01 9,-67.01 13,-23 44.01,-34 66.01,-35.01 10,0 19,0 19,-5.99 0,-5 -5,-5 -16,-5 -39.01,0 -73,2 -110,2 -33.01,0 -65.01,-2 -104.02,-2 -10,0 -15.99,0 -15.99,5 0,5.99 10,5.99 20,5.99 22,1.01 52,12.01 65,35.01 7,13 10,31 10,67.01 z" /></clipPath><linearGradient
       id="linearGradient190"
       spreadMethod="pad"
       gradientTransform="matrix(246.016,0,0,-246.016,7573.47,4931.99)"
       gradientUnits="userSpaceOnUse"
       y2="0"
       x2="1"
       y1="0"
       x1="0"><stop
         id="stop184"
         offset="0"
         style="stop-opacity:1;stop-color:#b89038" /><stop
         id="stop186"
         offset="0.529227"
         style="stop-opacity:1;stop-color:#f6e391" /><stop
         id="stop188"
         offset="1"
         style="stop-opacity:1;stop-color:#d1af6d" /></linearGradient><clipPath
       id="clipPath200"
       clipPathUnits="userSpaceOnUse"><path
         id="path198"
         d="m 8260.48,4925.49 c 100,0 166,22 166,105.01 0,83 -66,101.01 -166,101.01 h -81.01 c -66,0 -70,-2 -70,-86.01 v -117.01 c 0,-2 1,-3 3,-3 z m -208.02,119.01 c 0,36 -3,55.01 -10,67.01 -18.99,35.99 -61,33 -69,35 -10,2 -10,10.99 0,10.99 39,0 82.01,-2 106,-2 25,0 54.01,2 93.01,2 h 91.01 c 97,0 237.01,-15 237.01,-127 0,-113.01 -140.01,-135.01 -237.01,-135.01 h -151.01 c -2,0 -3,-1 -3,-3 v -73 c 0,-36.01 1.99,-54.01 9,-67.01 12,-23 44,-35.01 66,-35.01 10,0 19.01,0 19.01,-5.99 0,-5 -5,-5 -16.01,-5 -47,0 -77,2 -107,2 -28.01,0 -64.01,-2 -107.01,-2 -10,0 -16,0 -16,5 0,5 8,5.99 18,5.99 25,1.01 54,12.01 67,35.01 7,13 10,31 10,67.01 z" /></clipPath><linearGradient
       id="linearGradient208"
       spreadMethod="pad"
       gradientTransform="matrix(543.027,0,0,-543.027,7957.46,4931.99)"
       gradientUnits="userSpaceOnUse"
       y2="0"
       x2="1"
       y1="0"
       x1="0"><stop
         id="stop202"
         offset="0"
         style="stop-opacity:1;stop-color:#b89038" /><stop
         id="stop204"
         offset="0.529227"
         style="stop-opacity:1;stop-color:#f6e391" /><stop
         id="stop206"
         offset="1"
         style="stop-opacity:1;stop-color:#d1af6d" /></linearGradient></defs><g
     transform="matrix(1.3333333,0,0,-1.3333333,0,1333.3333)"
     id="g10"><g
       transform="scale(0.1)"
       id="g12"><g
         id="g14"><g
           clip-path="url(#clipPath20)"
           id="g16"><path
             id="path30"
             style="fill:url(#linearGradient28);fill-opacity:1;fill-rule:nonzero;stroke:none"
             d="m 2056.54,4757.48 c -8,-20 -14,-30 -35,-38 -26,-9 -102.01,-23 -200.01,-23 -143,0 -322.02,61 -322.02,236.01 0,175.01 180.01,234.02 321.02,234.02 133.01,0 197.01,-32 214.01,-36.01 22,-7 27,4.01 34,4.01 6,0 7.01,-4.01 7.01,-17.01 v -124 c 0,-8.01 -10,-8.01 -12.01,-1.01 -32,108.01 -113,152.02 -243.01,152.02 -123.01,0 -246.02,-61.01 -246.02,-211.02 0,-151.01 129.02,-215.01 246.02,-215.01 136,0 210.02,63 260.02,138.01 5,8 14,5 10.99,-5 l -35,-94.01" /></g></g><g
         id="g32"><g
           clip-path="url(#clipPath38)"
           id="g34"><path
             id="path48"
             style="fill:url(#linearGradient46);fill-opacity:1;fill-rule:nonzero;stroke:none"
             d="m 2388.5,4822.48 c 0,-80 5.01,-94 88,-94 h 85.01 c 88.01,0 151.01,11 190.01,114 3,7.01 12.01,5 11,-0.99 l -18,-60.01 c -14,-48 -30.99,-75 -79,-75 h -207.01 c -43.01,0 -63.01,2 -105.01,2 -33,0 -64.01,-2 -98.01,-2 -5,0 -8,3 -8,5 0,2 3,5.99 8,5.99 60.01,0 76,47.02 76,97.02 v 230.01 c 0,36 -2.99,55.01 -10,67.01 -12.99,23 -42.99,33.99 -65,35 -10,0 -20,0 -20,5.99 0,5 6,5 16,5 36.01,0 66.01,-2 101.01,-2 36,0 72.01,2 113,2 11.01,0 16.01,0 16.01,-5 0,-5.99 -9,-5.99 -19,-5.99 -22.01,-1.01 -53.01,-12 -66.01,-35 -6,-12 -9,-31.01 -9,-67.01 v -222.02" /></g></g><g
         id="g50"><g
           clip-path="url(#clipPath56)"
           id="g52"><path
             id="path66"
             style="fill:url(#linearGradient64);fill-opacity:1;fill-rule:nonzero;stroke:none"
             d="m 2961.48,5212.51 c -7,-4 -15,3 -5.99,11 51,44 119,83.01 139,83.01 11.01,0 44.01,-26.01 44.01,-32 0,-3 -3,-8 -7.01,-8 -49,-2 -107,-18.01 -170.01,-54.01 z m 10,-168.01 c 0,36 -2.99,55.01 -10,67.01 -12.99,23 -42.99,33.99 -65,35 -10,0 -20,0 -20,5.99 0,5 6,5 16,5 40,0 68.01,-2 106.01,-2 33,0 71,2 108,2 11.01,0 16.01,0 16.01,-5 0,-5.99 -9,-5.99 -19,-5.99 -22.01,-1.01 -53.01,-12 -66.01,-35 -6,-12 -8.99,-31.01 -8.99,-67.01 v -225.01 c 0,-36.01 2.99,-54.01 8.99,-67.01 13,-23 44,-34 66.01,-35.01 10,0 19,0 19,-5.99 0,-5 -5,-5 -16.01,-5 -39,0 -72.99,2 -110.01,2 -32.99,0 -65,-2 -104,-2 -10,0 -16,0 -16,5 0,5.99 10,5.99 20,5.99 22.01,1.01 52.01,12.01 65,35.01 7.01,13 10,31 10,67.01 v 225.01" /></g></g><g
         id="g68"><g
           clip-path="url(#clipPath74)"
           id="g70"><path
             id="path84"
             style="fill:url(#linearGradient82);fill-opacity:1;fill-rule:nonzero;stroke:none"
             d="m 3387.48,5107.5 v -308.01 c 0,-46.01 6.01,-82.02 74,-82.02 6.01,0 13.01,0 13.01,-5.99 0,-4.01 -4,-5 -9,-5 -28,0 -69.01,2 -96.01,2 -32,0 -64,-2 -96,-2 -6,0 -10,0.99 -10,5 0,5.99 7.99,5.99 14,5.99 63,0 76.01,29.01 76.01,82.02 v 287.01 c 0,26 -16.01,60.01 -76.01,60.01 -5,0 -14,0 -14,5.99 0,4.01 4,5 10,5 h 103 c 38,0 40,0 57.01,-15 l 383.02,-357.02 v 278.02 c 0,46.01 -5,83.01 -73,83.01 -2.01,0 -12.01,0 -12.01,5.99 0,4.01 4.01,5 10,5 27.01,0 66.01,-2 93.01,-2 32,0 62,2 94.01,2 6,0 10,-0.99 10,-5 0,-5.99 -12.01,-5.99 -14.01,-5.99 -60.99,0 -74,-32 -74,-83.01 v -339.02 c 0,-24 -1,-31 -6,-31 -5,0 -10.99,2 -30,20 l -427.03,394.02" /></g></g><g
         id="g86"><g
           clip-path="url(#clipPath92)"
           id="g88"><path
             id="path102"
             style="fill:url(#linearGradient100);fill-opacity:1;fill-rule:nonzero;stroke:none"
             d="m 4166.47,5044.5 c 0,36 -2.99,55.01 -10,67.01 -12.99,23 -42.99,33.99 -65,35 -10,0 -20,0 -20,5.99 0,5 6,5 16,5 40.01,0 68.01,-2 106.01,-2 33,0 71,2 108,2 11.01,0 16.01,0 16.01,-5 0,-5.99 -9,-5.99 -19,-5.99 -22.01,-1.01 -53.01,-12 -66.01,-35 -6,-12 -9,-31.01 -9,-67.01 v -225.01 c 0,-36.01 3,-54.01 9,-67.01 13,-23 44,-34 66.01,-35.01 10,0 19,0 19,-5.99 0,-5 -5,-5 -16.01,-5 -39,0 -72.99,2 -110,2 -33,0 -65.01,-2 -104.01,-2 -10,0 -16,0 -16,5 0,5.99 10,5.99 20,5.99 22.01,1.01 52.01,12.01 65,35.01 7.01,13 10,31 10,67.01 v 225.01" /></g></g><g
         id="g104"><g
           clip-path="url(#clipPath110)"
           id="g106"><path
             id="path120"
             style="fill:url(#linearGradient118);fill-opacity:1;fill-rule:nonzero;stroke:none"
             d="m 5011.51,4757.48 c -7.99,-20 -14,-30 -35,-38 -26,-9 -102.01,-23 -200.01,-23 -143,0 -322.02,61 -322.02,236.01 0,175.01 180.01,234.02 321.02,234.02 133.01,0 197.01,-32 214.01,-36.01 22,-7 27,4.01 34.01,4.01 5.99,0 7,-4.01 7,-17.01 v -124 c 0,-8.01 -10,-8.01 -12,-1.01 -32.01,108.01 -113.01,152.02 -243.02,152.02 -123.01,0 -246.02,-61.01 -246.02,-211.02 0,-151.01 129.02,-215.01 246.02,-215.01 136,0 210.02,63 260.02,138.01 5,8 14,5 10.99,-5 l -35,-94.01" /></g></g><g
         id="g122"><g
           clip-path="url(#clipPath128)"
           id="g124"><path
             id="path138"
             style="fill:url(#linearGradient136);fill-opacity:1;fill-rule:nonzero;stroke:none"
             d="m 5328.49,4875.49 h 268.01 l -133,220.01 z m 281.01,-22 h -295.02 l -37,-61.01 c -11,-17 -18.99,-35 -18.99,-48 0,-16 12,-27.01 43.99,-27.01 10.01,0 19,0 19,-5.99 0,-4.01 -5,-5 -15,-5 -30.99,0 -60,2 -91,2 -30,0 -50,-2 -79.01,-2 -10,0 -15.99,0.99 -15.99,5.99 0,5 10,6.01 20,6.01 55,0 89,45 112,83.01 l 196.02,315.02 c -18.01,23 -47.01,30 -75.01,30 -12.01,0 -14,10.99 0,10.99 h 82.01 c 33,0 44,-7 54,-24 l 214.02,-353.02 c 25,-41 45.99,-63.01 82,-63.01 13,0 19,-0.99 19,-5.99 0,-4.01 -5,-5 -18.01,-5 -34,0 -40,2 -76,2 -37,0 -73,-2 -109.01,-2 -12.99,0 -17,0.99 -17,5 0,5 5,5.99 17,5.99 29.01,0 47.01,7.01 47.01,25.01 0,9 -4,20 -13,35 l -46.01,76.01" /></g></g><g
         id="g140"><g
           clip-path="url(#clipPath146)"
           id="g142"><path
             id="path156"
             style="fill:url(#linearGradient154);fill-opacity:1;fill-rule:nonzero;stroke:none"
             d="m 6382.51,5024.5 c 0,-4 0,-8 -4,-9 -4,-1 -6,3 -7,6.99 -19,89.02 -112.01,116.02 -208.01,116.02 -88.01,0 -171.01,-21.01 -171.01,-79.01 0,-131.01 417.02,-16 417.02,-223.01 0,-94.01 -90.01,-140.01 -246.01,-140.01 -130.01,0 -170.01,24 -195.01,36 -18,9 -11.01,-10.01 -19.01,-12 -7,-2 -10.99,8 -14,29 l -16,106.01 c -0.99,6.99 -0.99,11.99 3,13 5,1 6.01,-3 8,-10 34,-114.01 130.01,-133.01 233.02,-133.01 115.01,0 201.01,26 201.01,99.01 0,164.01 -417.03,34 -417.03,221.01 0,96.01 114.01,121.01 216.02,121.01 92,0 151,-23 170.01,-30 19,-7 11,10 21,10 4,0 6,-3 11,-30 l 17,-92.01" /></g></g><g
         id="g158"><g
           clip-path="url(#clipPath164)"
           id="g160"><path
             id="path174"
             style="fill:url(#linearGradient172);fill-opacity:1;fill-rule:nonzero;stroke:none"
             d="m 6909.48,5051.5 c -28,46 -55.99,95.01 -118,95.01 -10.01,0 -19,0 -19,5 0,5 6,5.99 15,5.99 36.01,0 62,-2 98.01,-2 35.99,0 71,2 107,2 10,0 15,0 15,-5 0,-5.99 -8.99,-5.99 -18.99,-5.99 -34.01,0 -48.01,-11.01 -48.01,-29.01 0,-10 5,-22 13,-36 l 196.01,-319.02 190.01,318.02 c 10,16 15,29.01 15,39.01 0,17.99 -15.99,27 -48,27 -9,0 -18,0 -18,5.99 0,4.01 5,5 18,5 25,0 47.01,-2 77.01,-2 31,0 48,2 78,2 9,0 19,0 19,-5 0,-5.99 -6,-5.99 -19,-5.99 -43,0 -71,-32 -96,-74.01 L 7160.5,4731.48 c -20,-34.01 -23,-35 -28,-35 -4,0 -6,0.99 -26,33 l -197.02,322.02" /></g></g><g
         id="g176"><g
           clip-path="url(#clipPath182)"
           id="g178"><path
             id="path192"
             style="fill:url(#linearGradient190);fill-opacity:1;fill-rule:nonzero;stroke:none"
             d="m 7668.47,5044.5 c 0,36 -3,55.01 -10,67.01 -13,23 -43,33.99 -65,35 -10,0 -20,0 -20,5.99 0,5 5.99,5 15.99,5 40.01,0 68.01,-2 106.01,-2 33.01,0 71,2 108.01,2 11,0 16,0 16,-5 0,-5.99 -9,-5.99 -19,-5.99 -22,-1.01 -53.01,-12 -66.01,-35 -5.99,-12 -9,-31.01 -9,-67.01 v -225.01 c 0,-36.01 3.01,-54.01 9,-67.01 13,-23 44.01,-34 66.01,-35.01 10,0 19,0 19,-5.99 0,-5 -5,-5 -16,-5 -39.01,0 -73,2 -110,2 -33.01,0 -65.01,-2 -104.02,-2 -10,0 -15.99,0 -15.99,5 0,5.99 10,5.99 20,5.99 22,1.01 52,12.01 65,35.01 7,13 10,31 10,67.01 v 225.01" /></g></g><g
         id="g194"><g
           clip-path="url(#clipPath200)"
           id="g196"><path
             id="path210"
             style="fill:url(#linearGradient208);fill-opacity:1;fill-rule:nonzero;stroke:none"
             d="m 8260.48,4925.49 c 100,0 166,22 166,105.01 0,83 -66,101.01 -166,101.01 h -81.01 c -66,0 -70,-2 -70,-86.01 v -117.01 c 0,-2 1,-3 3,-3 z m -208.02,119.01 c 0,36 -3,55.01 -10,67.01 -18.99,35.99 -61,33 -69,35 -10,2 -10,10.99 0,10.99 39,0 82.01,-2 106,-2 25,0 54.01,2 93.01,2 h 91.01 c 97,0 237.01,-15 237.01,-127 0,-113.01 -140.01,-135.01 -237.01,-135.01 h -151.01 c -2,0 -3,-1 -3,-3 v -73 c 0,-36.01 1.99,-54.01 9,-67.01 12,-23 44,-35.01 66,-35.01 10,0 19.01,0 19.01,-5.99 0,-5 -5,-5 -16.01,-5 -47,0 -77,2 -107,2 -28.01,0 -64.01,-2 -107.01,-2 -10,0 -16,0 -16,5 0,5 8,5.99 18,5.99 25,1.01 54,12.01 67,35.01 7,13 10,31 10,67.01 v 225.01" /></g></g></g></g></svg>